<?xml version="1.0" encoding="UTF-8"?>
<svg id="Calque_1" data-name="Calque 1" xmlns="http://www.w3.org/2000/svg" viewBox="0 0 270.03 270.03">
  <defs>
    <style>
      .cls-1 {
        fill: #fff;
      }

      .cls-2 {
        fill: #f28a35;
      }
    </style>
  </defs>
  <rect class="cls-2" width="270.03" height="270.03" rx="46.5" ry="46.5"/>
  <g>
    <path class="cls-1" d="m180.22,131.25c-18.8,0-34.09-15.48-34.09-34.5s15.29-34.5,34.09-34.5,34.09,15.48,34.09,34.5-15.29,34.5-34.09,34.5Zm0-63.01c-15.49,0-28.09,12.79-28.09,28.5s12.6,28.5,28.09,28.5,28.09-12.79,28.09-28.5-12.6-28.5-28.09-28.5Z"/>
    <polygon class="cls-1" points="191.99 207.25 72.43 207.25 72.43 84.45 149.13 84.45 149.13 90.45 78.43 90.45 78.43 201.25 185.99 201.25 185.99 125.88 191.99 125.88 191.99 207.25"/>
    <rect class="cls-1" x="177.22" y="87.45" width="6" height="25.36"/>
    <rect class="cls-1" x="165.36" y="97.13" width="28.23" height="6"/>
  </g>
</svg>