<?xml version='1.0' encoding='utf-8'?>
<svg xmlns="http://www.w3.org/2000/svg" width="1000" height="1000" viewBox="0 0 264.58332 264.58334" version="1.1" id="svg5"> <defs id="defs2"/> <metadata id="metadata856"> </metadata> <rect style="fill:#f7f7f7;fill-opacity:1;stroke:none;stroke-width:10.5833;stroke-linecap:square;stroke-miterlimit:4;stroke-dasharray:none;stroke-opacity:1;paint-order:stroke markers fill" id="rect1573" width="264.58334" height="264.58334" x="-1.1368684e-13" y="0"/> <path style="fill:#ffffff;stroke:none;stroke-width:0.264583px;stroke-linecap:butt;stroke-linejoin:miter;stroke-opacity:1" d="m 83.646676,66.151148 h 77.721274 l 27.8369,34.072402 v 98.20868 H 83.646676 Z" id="path1575"/> <path id="path1577" style="color:#000000;fill:#a1ccb5;fill-opacity:1;stroke-width:0.264583;-inkscape-stroke:none;paint-order:fill markers stroke" d="M 82.847636,65.484398 V 199.09898 H 190.00389 V 100.54169 L 161.12038,65.484398 Z m 1.32292,1.32291 h 76.949824 v 33.734382 h 27.56059 v 97.23437 H 84.170556 Z"/> <rect style="fill:#207245;fill-opacity:1;stroke:none;stroke-width:2.11667;stroke-miterlimit:4;stroke-dasharray:none;stroke-opacity:1;paint-order:fill markers stroke" id="rect1579" width="77.611122" height="26.458332" x="71.58606" y="78.321976" rx="1.3229169" ry="1.3229166"/> <path style="fill:none;fill-opacity:1;stroke:#207245;stroke-width:3.175;stroke-linecap:butt;stroke-linejoin:miter;stroke-miterlimit:4;stroke-dasharray:none;stroke-opacity:1" d="m 100.04556,164.47277 h 72.76041" id="path1585"/> <path style="fill:none;fill-opacity:1;stroke:#207245;stroke-width:3.175;stroke-linecap:butt;stroke-linejoin:miter;stroke-miterlimit:4;stroke-dasharray:none;stroke-opacity:1" d="m 100.04556,150.12531 h 72.76041" id="path1587"/> <path style="fill:none;stroke:#207245;stroke-width:3.17501;stroke-linecap:butt;stroke-linejoin:miter;stroke-miterlimit:4;stroke-dasharray:none;stroke-opacity:1" d="m 100.9716,121.43042 v 57.3898 h 70.90833 v -57.3898 z" id="path1589"/> <path style="fill:none;stroke:#207245;stroke-width:3.175;stroke-linecap:butt;stroke-linejoin:miter;stroke-miterlimit:4;stroke-dasharray:none;stroke-opacity:1" d="m 124.60771,122.08569 v 58.13315" id="path1591"/> <path style="fill:none;fill-opacity:1;stroke:#207245;stroke-width:3.175;stroke-linecap:butt;stroke-linejoin:miter;stroke-miterlimit:4;stroke-dasharray:none;stroke-opacity:1" d="m 100.04556,135.77787 h 72.76041" id="path1593"/> <path style="fill:none;stroke:#207245;stroke-width:3.175;stroke-linecap:butt;stroke-linejoin:miter;stroke-miterlimit:4;stroke-dasharray:none;stroke-opacity:1" d="m 148.24383,122.08569 v 58.13315" id="path1595"/> <g aria-label="XLS" id="text1583" style="font-size:19.4028px;line-height:1.25;font-family:'Padauk Book';-inkscape-font-specification:'Padauk Book, Normal';letter-spacing:2.64583px;word-spacing:0px;fill:#ffffff;stroke-width:0.264583"> <path d="m 91.829399,97.633461 4.433843,-6.461284 -3.903297,-5.72231 h 2.330609 l 2.823259,4.395947 2.766417,-4.395947 h 2.16008 l -3.92225,5.72231 4.43384,6.461284 h -2.33061 l -3.353801,-5.115973 -3.296961,5.115973 z" style="text-align:center;text-anchor:middle" id="path2007"/> <path d="M 107.30306,97.633461 V 85.449867 h 1.87585 v 10.591958 h 5.41914 v 1.591636 z" style="text-align:center;text-anchor:middle" id="path2009"/> <path d="m 122.9283,97.879786 q -1.17478,0 -2.14113,-0.454754 -0.96635,-0.473701 -1.53479,-1.345311 -0.56844,-0.890558 -0.56844,-2.141129 h 1.95165 q 0,1.042142 0.62528,1.686376 0.64423,0.644234 1.66743,0.644234 0.49265,0 1.04214,-0.05684 0.54949,-0.07579 1.0232,-0.265273 0.49265,-0.189481 0.79581,-0.568442 0.32212,-0.37896 0.32212,-1.004246 0,-0.757922 -0.39791,-1.174779 -0.37896,-0.435805 -1.02319,-0.644233 -0.64424,-0.227377 -1.42111,-0.360013 -0.75792,-0.151585 -1.53479,-0.322117 -0.75792,-0.189481 -1.40215,-0.530545 -0.64424,-0.360013 -1.04215,-0.985299 -0.37896,-0.644233 -0.37896,-1.705324 0,-0.833714 0.37896,-1.459 0.37897,-0.644233 1.00425,-1.080038 0.64423,-0.435805 1.38321,-0.663182 0.75792,-0.227376 1.47795,-0.227376 1.11793,0 2.10323,0.341064 1.00425,0.322117 1.62953,1.061091 0.64423,0.738974 0.64423,1.970597 h -1.91375 q 0,-0.738974 -0.37896,-1.136883 -0.36001,-0.397909 -0.9474,-0.530545 -0.56844,-0.132637 -1.19373,-0.132637 -0.92845,0 -1.62953,0.416857 -0.68213,0.397909 -0.68213,1.402156 0,0.644233 0.37896,1.023194 0.39791,0.360013 1.04214,0.568442 0.64424,0.208428 1.40216,0.378961 0.77687,0.151584 1.53479,0.360013 0.75792,0.208428 1.40216,0.587389 0.64423,0.378961 1.02319,1.023195 0.39791,0.644233 0.39791,1.667428 0,1.023194 -0.45475,1.74322 -0.45476,0.701078 -1.19373,1.136883 -0.73897,0.416857 -1.62953,0.587389 -0.89056,0.189481 -1.76217,0.189481 z" style="text-align:center;text-anchor:middle" id="path2011"/> </g> </svg>