<?xml version="1.0" encoding="UTF-8"?>
<svg id="Calque_1" data-name="Calque 1" xmlns="http://www.w3.org/2000/svg" viewBox="0 0 270.03 270.03">
  <defs>
    <style>
      .cls-1 {
        fill: #fff;
      }

      .cls-2 {
        fill: #98bc59;
      }
    </style>
  </defs>
  <rect class="cls-2" width="270.03" height="270.03" rx="46.5" ry="46.5"/>
  <g>
    <polygon class="cls-1" points="137.04 215.5 60.57 187.86 58.57 161.07 66.57 161.07 66.57 183.65 134.98 209.1 208.08 181.84 208.08 157.98 214.08 157.98 214.08 185.97 137.04 215.5"/>
    <polygon class="cls-1" points="138.01 212.3 132.01 212.3 134.01 157.98 140.01 157.98 138.01 212.3"/>
    <path class="cls-1" d="m175.34,177.26L8.91,115.92l90.46-30.86,160.78,56.63-84.81,35.56ZM26.58,116.11l148.63,54.69,68.26-28.62-144.11-50.76-72.78,24.69Z"/>
    <path class="cls-1" d="m96.88,177.23L9.01,144.94l170.62-59.9,83.24,31.65-165.99,60.54Zm-70.4-32.13l70.43,25.73,148.77-54.26-66.12-25.14L26.49,145.1Z"/>
  </g>
</svg>