<?xml version="1.0" encoding="UTF-8"?>
<svg xmlns="http://www.w3.org/2000/svg" viewBox="0 0 467.58 431.6">
  <defs>
    <style>
      .cls-1 {
        fill: #fff;
      }

      .cls-2 {
        fill: #fafafa;
      }

      .cls-3 {
        fill: #f5f5f5;
      }

      .cls-4 {
        fill: #455a64;
      }

      .cls-5 {
        opacity: .2;
      }

      .cls-6 {
        fill: #e0e0e0;
      }

      .cls-7 {
        fill: #e8505b;
      }

      .cls-8 {
        fill: #eb996e;
      }

      .cls-9 {
        opacity: .3;
      }

      .cls-10 {
        fill: #ffbe9d;
      }

      .cls-11 {
        fill: #ebebeb;
      }

      .cls-12 {
        fill: #263238;
      }
    </style>
  </defs>
  <g id="Background_Complete" data-name="Background Complete">
    <g>
      <path class="cls-11" d="m432.26,265.65s-9-2.96-13.32,17.82c-4.32,20.78-4.96,32.27-4.96,32.27,0,0-1.41,4.49-4.72,2.71-3.31-1.78-8.84-7.89-12.95-5.39-4.27,2.59-4.38,8.17-1.42,15.52,2.96,7.35,8.84,23.69,9.37,25.17.52,1.45.26,3.87-2.18,3.02-2.45-.85-17.91-10.82-22.2-3.2-4.29,7.62,7.31,26.74,8.54,28.86,1.23,2.11,1.05,3.21.12,4.07-.93.86-5.81-2.98-10.33-5.64-4.51-2.65-10.21-4.94-12.32-.34s1.14,20.44,22.86,41.68l10.71,9.18,13.44-4.48c28.17-11.35,37.22-24.75,37.02-29.81-.19-5.06-6.33-5.12-11.52-4.39-5.19.73-11.16,2.42-11.69,1.27-.53-1.15-.28-2.23,1.66-3.72,1.94-1.49,19.96-14.74,18.9-23.42s-19.16-5.37-21.75-5.51c-2.59-.15-1.9-2.48-.87-3.62,1.05-1.17,12.72-14.03,18.26-19.69,5.54-5.67,7.56-10.87,4.6-14.89-2.85-3.88-10.29-.34-14.03.04s-3.33-4.31-3.33-4.31c0,0,3.78-10.86,7.72-31.72,3.94-20.86-5.76-21.53-5.76-21.53"/>
      <path class="cls-6" d="m399.35,428.41c2.95-15.31,7.2-36.42,11.98-59.73,4.77-23.3,9.08-44.4,12.11-59.69,1.51-7.63,2.73-13.81,3.58-18.11.42-2.12.75-3.78.98-4.92.11-.55.2-.97.27-1.28.06-.29.11-.43.11-.43,0,0-.01.15-.06.44-.05.31-.13.74-.22,1.29-.21,1.15-.51,2.81-.89,4.94-.78,4.29-1.95,10.49-3.42,18.14-2.95,15.31-7.2,36.42-11.97,59.72-4.78,23.31-9.08,44.41-12.11,59.7"/>
      <path class="cls-6" d="m403.7,321.91s.24.28.6.82c.36.55.86,1.35,1.47,2.35,1.21,2.01,2.82,4.82,4.53,7.96,1.67,3.09,3.18,5.89,4.34,8.05.52.95.96,1.77,1.33,2.43.32.57.48.9.45.92-.03.02-.24-.28-.61-.82-.36-.55-.86-1.35-1.46-2.36-1.19-2.02-2.76-4.85-4.47-7.99-1.69-3.08-3.22-5.86-4.4-8.02-.53-.95-.97-1.76-1.34-2.43-.31-.58-.47-.9-.44-.92Z"/>
      <path class="cls-6" d="m417.73,344.35c-.07-.11,5.58-3.68,12.62-7.96,7.04-4.28,12.8-7.66,12.87-7.55.07.11-5.58,3.68-12.62,7.96-7.04,4.28-12.8,7.66-12.87,7.55Z"/>
      <path class="cls-6" d="m408.79,379.8s.35-.15.99-.33c.75-.2,1.66-.45,2.73-.74,2.3-.63,5.48-1.51,8.96-2.6,3.48-1.09,6.59-2.18,8.84-2.99,1.05-.37,1.94-.69,2.67-.95.63-.22.99-.33,1-.3.01.03-.32.2-.93.47-.61.27-1.5.65-2.61,1.1-2.22.89-5.33,2.04-8.82,3.13-3.48,1.1-6.69,1.93-9.02,2.47-1.17.27-2.11.47-2.77.59-.66.12-1.02.18-1.03.15Z"/>
      <path class="cls-6" d="m391.63,362.3s.29.19.75.61c.46.42,1.11,1.03,1.91,1.79,1.6,1.53,3.78,3.66,6.17,6.03,2.39,2.38,4.54,4.55,6.07,6.13.77.79,1.38,1.44,1.8,1.9s.64.72.61.74c-.02.02-.29-.19-.75-.61-.46-.41-1.11-1.03-1.91-1.79-1.6-1.53-3.78-3.66-6.17-6.03-2.39-2.38-4.54-4.55-6.07-6.13-.77-.79-1.38-1.44-1.8-1.9-.42-.46-.64-.72-.61-.74Z"/>
      <path class="cls-6" d="m379.75,392.6s.36.26.95.79c.65.6,1.47,1.37,2.45,2.29,2.06,1.95,4.88,4.66,7.97,7.67,3.09,3.02,5.88,5.77,7.87,7.77.94.96,1.73,1.76,2.35,2.4.55.57.84.9.81.93-.02.02-.36-.26-.95-.79-.65-.6-1.47-1.37-2.45-2.29-2.06-1.95-4.88-4.66-7.97-7.67-3.09-3.02-5.87-5.77-7.87-7.77-.94-.96-1.73-1.76-2.35-2.4-.55-.57-.84-.9-.81-.93Z"/>
      <path class="cls-6" d="m401.77,413.77s.43-.19,1.24-.45c.9-.28,2.05-.64,3.43-1.07,2.89-.9,6.89-2.16,11.26-3.67,4.37-1.5,8.3-2.96,11.13-4.04,1.35-.51,2.48-.94,3.36-1.27.79-.3,1.24-.44,1.25-.41.01.03-.41.24-1.18.59-.77.35-1.9.84-3.3,1.41-2.81,1.16-6.72,2.67-11.1,4.18-4.38,1.51-8.4,2.72-11.32,3.54-1.46.41-2.65.72-3.47.92-.82.2-1.28.3-1.29.26Z"/>
    </g>
    <g>
      <g>
        <path class="cls-11" d="m198.86,91.13l-37.42-17.86c-2.59-1.23-3.68-4.33-2.45-6.92l24.72-51.79c1.23-2.59,4.33-3.68,6.92-2.45l23.73,11.33,9.33,27.7-17.92,37.54c-1.23,2.59-4.33,3.68-6.92,2.45Z"/>
        <path class="cls-3" d="m214.37,23.44l-6.96,14.58c-1.15,2.4-.13,5.28,2.27,6.43l14.01,6.69-9.33-27.7Z"/>
        <path class="cls-6" d="m206.99,39.38s-1.87,3.45,1.6,6.53c.13.12.27.22.41.32,1.67,1.2,12.7,9.09,12.83,8.82.14-.3,1.87-3.92,1.87-3.92l-14.02-6.69s-3.44-1.79-2.69-5.07Z"/>
      </g>
      <path class="cls-2" d="m204.56,35.92c-.09.19-4.04-1.51-8.82-3.79-4.78-2.28-8.58-4.28-8.49-4.47s4.04,1.51,8.82,3.79c4.78,2.28,8.58,4.28,8.49,4.47Z"/>
      <path class="cls-2" d="m211.8,49.5c-.09.19-6.54-2.71-14.41-6.46-7.87-3.76-14.17-6.95-14.08-7.14s6.54,2.71,14.41,6.46c7.87,3.76,14.17,6.95,14.08,7.14Z"/>
      <path class="cls-2" d="m211.08,57.6c-.09.19-7.11-2.98-15.69-7.07-8.58-4.1-15.46-7.57-15.37-7.75.09-.19,7.11,2.98,15.69,7.07,8.57,4.09,15.46,7.56,15.37,7.75Z"/>
      <path class="cls-2" d="m207.98,64.1c-.09.19-7.11-2.98-15.69-7.07-8.58-4.1-15.46-7.57-15.37-7.75.09-.19,7.11,2.98,15.69,7.07,8.57,4.09,15.46,7.56,15.37,7.75Z"/>
      <path class="cls-2" d="m204.88,70.59c-.09.19-7.11-2.98-15.69-7.07-8.58-4.1-15.46-7.57-15.37-7.75.09-.19,7.11,2.98,15.69,7.07,8.57,4.09,15.46,7.56,15.37,7.75Z"/>
      <path class="cls-2" d="m201.78,77.08c-.09.19-7.11-2.98-15.69-7.07-8.58-4.09-15.46-7.57-15.37-7.75.09-.19,7.11,2.98,15.69,7.07,8.57,4.09,15.46,7.56,15.37,7.75Z"/>
    </g>
    <path class="cls-2" d="m409.02,353.49h-75.47s-.89-17.76,14.8-18.94c0,0,2.6-15.02,20.13-15.09,21.01-.09,21.27,18.2,21.27,18.2,0,0,17.2-1.62,19.27,15.84"/>
    <polygon class="cls-11" points="50.22 326.73 50.22 326.73 50.22 326.73 50.22 326.73 35.72 339.87 44.47 339.87 44.47 358.47 49.89 358.47 50.55 358.47 55.97 358.47 55.97 339.87 64.72 339.87 50.22 326.73"/>
    <polygon class="cls-11" points="423.96 72.23 423.96 72.23 423.96 72.23 423.96 72.23 406.23 88.3 416.94 88.3 416.94 111.03 423.56 111.03 424.36 111.03 430.99 111.03 430.99 88.3 441.69 88.3 423.96 72.23"/>
    <g>
      <rect class="cls-11" x="37.94" y="69.79" width="53.56" height="66.99" transform="translate(-50.2 143.91) rotate(-77.39)"/>
      <rect class="cls-3" x="41.27" y="72.14" width="46.82" height="62.29" transform="translate(-50.23 143.86) rotate(-77.39)"/>
      <polygon class="cls-6" points="29.18 119.33 56.76 95.68 65.94 116.39 76.98 108.88 89.96 132.92 29.18 119.33"/>
      <path class="cls-6" d="m76.27,96.39c-.59,2.64-3.21,4.31-5.86,3.72-2.64-.59-4.31-3.21-3.72-5.86.59-2.64,3.21-4.31,5.86-3.72,2.64.59,4.31,3.21,3.72,5.86Z"/>
    </g>
  </g>
  <g id="Floor">
    <path class="cls-12" d="m467.58,431.03c0,.14-104.68.26-233.78.26s-233.8-.12-233.8-.26,104.66-.26,233.8-.26,233.78.12,233.78.26Z"/>
  </g>
  <g id="Plant">
    <g>
      <path class="cls-7" d="m399.59,394.2c-1.71,2.44-5.03,1.63-6.57.14s-2.19-3.65-2.78-5.71c-1.35-4.71-2.72-9.64-1.71-14.43.3-1.43.84-2.86,1.84-3.92,1.01-1.06,2.55-1.69,3.97-1.32,1.67.44,2.72,2.08,3.47,3.64,2.21,4.59,3.38,9.67,3.4,14.76,0,2.38-.27,4.87-1.61,6.84"/>
      <g class="cls-5">
        <path d="m399.59,394.2c-1.71,2.44-5.03,1.63-6.57.14s-2.19-3.65-2.78-5.71c-1.35-4.71-2.72-9.64-1.71-14.43.3-1.43.84-2.86,1.84-3.92,1.01-1.06,2.55-1.69,3.97-1.32,1.67.44,2.72,2.08,3.47,3.64,2.21,4.59,3.38,9.67,3.4,14.76,0,2.38-.27,4.87-1.61,6.84"/>
      </g>
      <path class="cls-7" d="m393.18,406.56c-2.79-1.44-6.09-1.63-9.19-1.12-1.67.28-3.41.77-4.54,2.03-1.13,1.25-1.35,3.46-.05,4.53.78.64,1.86.74,2.86.73,2.43-.03,5.12-.46,7.07,1.01,1.11.83,1.84,2.22,3.17,2.63,1.3.4,2.76-.36,3.44-1.53.69-1.17.71-2.63.39-3.95,0,0-.34-2.87-3.15-4.32Z"/>
      <path class="cls-7" d="m404.28,397.71c-1.86-2.2-2.21-5.41-1.38-8.17.83-2.76,2.69-5.11,4.84-7.02,2.52-2.25,5.48-4,8.67-5.12,1.25-.44,2.58-.79,3.9-.66,1.32.13,2.65.8,3.27,1.98.91,1.74.04,3.85-.91,5.57-1.67,3.03-3.57,5.94-5.69,8.67-1.71,2.2-3.66,4.37-6.26,5.37-2.6.99-5.3.88-6.68-.93"/>
      <path class="cls-12" d="m399.7,431.03s-.08-.39-.15-1.11c-.08-.81-.18-1.82-.29-3.03-.14-1.27-.33-2.79-.68-4.44-.35-1.65-.9-3.43-1.61-5.24-.73-1.8-1.63-3.43-2.68-4.74-1.04-1.31-2.25-2.26-3.38-2.81-1.13-.56-2.15-.79-2.85-.89-.71-.07-1.1-.13-1.1-.16,0-.03.4-.04,1.12-.02.72.05,1.78.23,2.97.77,1.2.53,2.48,1.5,3.57,2.84,1.1,1.34,2.03,3.01,2.77,4.84.72,1.84,1.27,3.64,1.6,5.33.34,1.68.49,3.21.59,4.5.1,1.29.13,2.33.15,3.05.02.72,0,1.12-.02,1.12Z"/>
      <path class="cls-12" d="m399.49,428.7s-.03-.18-.03-.51c0-.39,0-.87,0-1.47,0-1.28,0-3.13-.07-5.41-.11-4.56-.51-10.87-1.27-17.79-.76-6.93-1.78-13.16-2.7-17.63-.22-1.12-.44-2.13-.65-3.01-.2-.89-.37-1.65-.53-2.27-.14-.58-.25-1.05-.34-1.43-.07-.33-.11-.5-.09-.51.02,0,.08.16.18.48.11.37.25.84.43,1.41.19.61.38,1.37.61,2.25.23.88.47,1.89.71,3,1.01,4.47,2.07,10.71,2.84,17.65.76,6.94,1.1,13.26,1.13,17.84.03,2.29-.02,4.14-.08,5.42-.04.6-.07,1.08-.09,1.47-.03.34-.05.51-.06.51Z"/>
      <path class="cls-12" d="m399.46,416.51s-.03-.55.01-1.54c.06-.99.19-2.42.47-4.17.29-1.75.71-3.82,1.35-6.07.62-2.26,1.46-4.7,2.54-7.18,2.11-4.99,4.97-9.08,7.45-11.6.58-.67,1.23-1.16,1.75-1.63.27-.23.51-.45.75-.63.24-.17.47-.32.68-.47.82-.56,1.28-.86,1.29-.83.07.1-1.83,1.22-4.24,3.78-2.4,2.56-5.18,6.61-7.27,11.56-1.07,2.46-1.92,4.88-2.55,7.12-.67,2.23-1.11,4.28-1.44,6.01-.32,1.73-.5,3.15-.61,4.12-.09.98-.16,1.52-.19,1.52Z"/>
    </g>
  </g>
  <g id="Files">
    <g>
      <g>
        <rect class="cls-11" x="271.82" y="8.85" width="63.96" height="80" transform="translate(202.81 339.5) rotate(-79.98)"/>
        <path class="cls-12" d="m348.76,24.32s-.13-.02-.38-.06c-.26-.04-.63-.1-1.11-.18-.98-.17-2.42-.41-4.28-.73-3.75-.65-9.21-1.6-16.14-2.8-13.84-2.42-33.52-5.86-56.9-9.95l.24-.17c-3.31,18.75-7.1,40.24-11.11,62.98h0s-.19-.26-.19-.26c29.16,5.17,56.27,9.97,78.77,13.96l-.22.16c3.39-18.96,6.21-34.67,8.17-45.66.99-5.5,1.77-9.81,2.31-12.76.27-1.47.48-2.59.62-3.36.14-.76.23-1.16.23-1.16,0,0-.05.38-.18,1.13-.13.77-.32,1.88-.57,3.34-.51,2.95-1.25,7.25-2.2,12.73-1.92,11.03-4.68,26.79-8,45.82l-.03.19-.19-.03c-22.51-3.97-49.62-8.75-78.79-13.89l-.23-.04.04-.23h0c4.03-22.75,7.84-44.23,11.16-62.98l.04-.2.2.04c23.43,4.18,43.13,7.7,57,10.18,6.9,1.24,12.34,2.22,16.07,2.9,1.84.34,3.26.6,4.24.77.47.09.83.16,1.08.2.24.05.36.08.36.08Z"/>
      </g>
      <rect class="cls-7" x="275.79" y="11.65" width="55.91" height="74.38" transform="translate(202.78 339.45) rotate(-79.98)"/>
      <polygon class="cls-7" points="262.26 69.89 293.89 40.19 305.95 64.4 318.72 54.86 335.5 82.84 262.26 69.89"/>
      <path class="cls-7" d="m317.2,39.99c-.56,3.19-3.6,5.31-6.79,4.75-3.19-.56-5.31-3.6-4.75-6.79.56-3.19,3.6-5.31,6.79-4.75,3.19.56,5.31,3.6,4.75,6.79Z"/>
      <g class="cls-5">
        <polygon points="262.26 69.89 293.89 40.19 305.95 64.4 318.72 54.86 335.5 82.84 262.26 69.89"/>
      </g>
      <g class="cls-5">
        <path d="m317.2,39.99c-.56,3.19-3.6,5.31-6.79,4.75-3.19-.56-5.31-3.6-4.75-6.79.56-3.19,3.6-5.31,6.79-4.75,3.19.56,5.31,3.6,4.75,6.79Z"/>
      </g>
    </g>
    <g>
      <path class="cls-7" d="m414.26,238.24l-45.54-13.37c-3.15-.92-4.95-4.22-4.03-7.37l18.5-63.04c.92-3.15,4.22-4.95,7.37-4.03l28.88,8.48,15.59,29.61-13.41,45.69c-.92,3.15-4.22,4.95-7.37,4.03Z"/>
      <g>
        <path class="cls-2" d="m411.71,204.57s.38.1,1.12.16c.73.04,1.87-.04,3.09-.73.6-.35,1.2-.86,1.69-1.55.25-.34.45-.73.63-1.15.16-.43.28-.9.42-1.38.56-1.94,1.19-4.14,1.89-6.57.35-1.22.72-2.49,1.1-3.82.19-.66.39-1.34.59-2.03.2-.7.41-1.38.45-2.1.11-1.44-.35-2.96-1.3-4.16-.47-.6-1.07-1.12-1.75-1.51-.68-.4-1.46-.6-2.27-.84-6.43-1.87-13.49-3.93-20.91-6.09-1.83-.35-3.77.22-5.08,1.47-.67.61-1.17,1.38-1.48,2.22-.29.84-.53,1.76-.79,2.62-1.03,3.5-2.03,6.87-2.98,10.09-.22.8-.51,1.61-.66,2.36-.14.77-.11,1.56.08,2.3.37,1.48,1.36,2.74,2.62,3.44.62.36,1.31.54,2.01.75.69.2,1.37.41,2.03.6,1.32.39,2.6.77,3.81,1.14,4.83,1.45,8.75,2.63,11.5,3.46,1.33.41,2.37.73,3.12.96.33.11.6.19.81.26.18.06.27.1.27.11,0,0-.1-.01-.28-.06-.21-.06-.48-.13-.82-.22-.75-.21-1.81-.5-3.14-.87-2.76-.79-6.69-1.92-11.54-3.3-1.22-.35-2.49-.72-3.82-1.1-.66-.19-1.34-.39-2.03-.59-.68-.2-1.42-.38-2.1-.77-1.35-.75-2.43-2.09-2.84-3.7-.21-.8-.25-1.65-.1-2.49.17-.85.44-1.6.66-2.42.94-3.22,1.93-6.59,2.95-10.09.27-.88.49-1.75.8-2.66.33-.91.88-1.74,1.6-2.41,1.42-1.36,3.53-1.99,5.52-1.6,7.48,2.13,14.5,4.25,20.94,6.14.79.23,1.63.46,2.36.89.73.42,1.37.98,1.88,1.63,1.01,1.29,1.49,2.93,1.37,4.46-.05.77-.28,1.5-.48,2.18-.2.69-.41,1.37-.6,2.03-.39,1.32-.77,2.6-1.14,3.81-.73,2.42-1.38,4.62-1.96,6.55-.15.48-.28.95-.45,1.4-.19.44-.41.85-.68,1.2-.52.71-1.16,1.23-1.79,1.58-1.28.7-2.45.73-3.19.67-.75-.09-1.11-.26-1.11-.26Z"/>
        <path class="cls-2" d="m417.7,203.09s-.09-.14-.23-.44c-.15-.35-.34-.78-.57-1.29-.5-1.2-1.17-2.82-1.99-4.79-.42-1.02-.87-2.13-1.35-3.32-.24-.6-.49-1.21-.75-1.85-.13-.31-.26-.63-.39-.96-.13-.28-.33-.54-.6-.71-.53-.36-1.29-.37-1.84,0-.61.44-1.24.89-1.88,1.35-1.28.92-2.6,1.87-3.96,2.85-.61.44-1.21.87-1.78,1.27l-.23.16-.14-.24c-.76-1.34-1.5-2.65-2.21-3.91-.18-.31-.35-.63-.53-.94-.18-.32-.32-.59-.56-.79-.46-.41-1.12-.55-1.68-.39-.28.07-.54.25-.83.4-.28.16-.56.31-.83.47-.54.31-1.07.6-1.58.89-1.01.57-1.96,1.1-2.83,1.59-1.68.93-3.06,1.69-4.09,2.26-.45.23-.81.43-1.12.59-.26.13-.4.19-.4.18,0-.01.11-.1.36-.26.29-.18.65-.4,1.07-.67,1.01-.6,2.36-1.41,4.01-2.39.86-.5,1.8-1.05,2.8-1.64.51-.3,1.03-.6,1.57-.91.27-.16.54-.32.82-.48.27-.15.55-.35.92-.46.7-.21,1.53-.05,2.12.47.3.25.5.62.66.91.18.31.35.62.53.93.72,1.26,1.46,2.56,2.23,3.9l-.36-.08c.57-.41,1.17-.84,1.77-1.27,1.36-.97,2.68-1.92,3.97-2.84.64-.46,1.28-.91,1.9-1.35.71-.49,1.69-.46,2.36,0,.34.22.6.55.76.91.13.33.26.66.39.98.25.64.49,1.26.73,1.86.46,1.19.9,2.31,1.3,3.34.76,1.99,1.38,3.63,1.84,4.85.19.53.35.97.48,1.33.1.31.15.47.14.48Z"/>
        <path class="cls-2" d="m403.54,185.58s.28.03.75.02c.47,0,1.18-.13,1.84-.64.66-.49,1.21-1.43,1.12-2.52-.06-1.07-.85-2.2-2.05-2.55-1.2-.36-2.47.16-3.1,1.03-.66.87-.7,1.96-.42,2.73.28.79.81,1.28,1.2,1.54.4.26.66.35.65.39,0,.02-.29,0-.75-.22-.45-.22-1.07-.71-1.43-1.58-.37-.84-.37-2.1.37-3.13.7-1.03,2.2-1.67,3.61-1.24,1.42.4,2.33,1.75,2.37,3,.07,1.27-.61,2.32-1.38,2.83-.77.53-1.56.61-2.06.55-.51-.06-.76-.19-.75-.22Z"/>
      </g>
      <g class="cls-5">
        <path d="m365.13,208.5h59.34v17.18c0,3.51-2.85,6.36-6.36,6.36h-46.62c-3.51,0-6.36-2.85-6.36-6.36v-17.18h0Z" transform="translate(78.01 -102.27) rotate(16.36)"/>
      </g>
      <path class="cls-7" d="m419.45,158.92l-5.21,17.74c-.86,2.93.82,6,3.74,6.86l17.06,5.01-15.59-29.61Z"/>
      <g class="cls-5">
        <path d="m414.02,178.28s-1.49,4.24,3,7.09c.17.11.35.2.52.29,2.11,1.05,16.01,7.96,16.11,7.63.11-.36,1.4-4.77,1.4-4.77l-17.06-5.01s-4.22-1.4-3.97-5.23Z"/>
      </g>
      <g>
        <path class="cls-2" d="m389.94,217.96l1.87.55-1.05,3.59c-1.19.45-2.65.45-3.91.07-2.78-.82-4.27-3.33-3.49-6,.78-2.67,3.39-3.98,6.21-3.15,1.56.46,2.69,1.37,3.26,2.62l-1.67.83c-.44-.87-1.1-1.41-2-1.67-1.72-.5-3.23.3-3.73,1.98-.49,1.66.34,3.18,2.04,3.68.56.16,1.11.21,1.71.09l.76-2.59Z"/>
        <path class="cls-2" d="m394.97,214.77l2.05.6-2.6,8.86-2.05-.6,2.6-8.86Z"/>
        <path class="cls-2" d="m400.68,218.24l-.69,2.34,4.1,1.2-.48,1.64-4.1-1.2-.95,3.23-2.05-.6,2.6-8.86,6.69,1.96-.48,1.64-4.64-1.36Z"/>
      </g>
    </g>
    <g>
      <g>
        <path class="cls-7" d="m116.68,226.55l-41.21,9.46c-2.85.65-5.69-1.12-6.34-3.97l-13.09-57.04c-.65-2.85,1.12-5.69,3.97-6.34l26.14-6,25.02,16.21,9.49,41.34c.65,2.85-1.12,5.69-3.97,6.34Z"/>
        <path class="cls-7" d="m86.14,162.65l3.69,16.05c.61,2.65,3.25,4.3,5.9,3.7l15.44-3.54-25.02-16.21Z"/>
        <g class="cls-5">
          <path d="m90.36,180.07s.69,3.94,5.42,4.2c.18,0,.36,0,.53,0,2.1-.1,15.91-.79,15.84-1.09-.08-.33-.99-4.31-.99-4.31l-15.44,3.54s-3.88.75-5.36-2.34Z"/>
        </g>
        <g class="cls-9">
          <path class="cls-1" d="m86.14,162.65l3.69,16.05c.61,2.65,3.25,4.3,5.9,3.7l15.44-3.54-25.02-16.21Z"/>
        </g>
      </g>
      <path class="cls-2" d="m86.22,178.84c.05.21-4.18,1.35-9.45,2.56-5.27,1.21-9.57,2.02-9.62,1.81-.05-.21,4.18-1.35,9.45-2.56,5.26-1.21,9.57-2.02,9.62-1.81Z"/>
      <path class="cls-2" d="m100.62,185.09c.05.21-6.94,1.99-15.6,3.97-8.67,1.99-15.73,3.43-15.78,3.23-.05-.21,6.94-1.99,15.6-3.98,8.66-1.99,15.73-3.43,15.77-3.23Z"/>
      <path class="cls-2" d="m105.19,192.02c.05.21-7.57,2.13-17.02,4.3-9.45,2.17-17.14,3.76-17.19,3.55-.05-.21,7.57-2.13,17.02-4.3,9.44-2.17,17.14-3.76,17.19-3.55Z"/>
      <path class="cls-2" d="m106.83,199.18c.05.21-7.57,2.13-17.02,4.3-9.45,2.17-17.14,3.76-17.19,3.55-.05-.21,7.57-2.13,17.02-4.3,9.44-2.17,17.14-3.76,17.19-3.55Z"/>
      <path class="cls-2" d="m108.47,206.33c.05.21-7.57,2.13-17.02,4.3-9.45,2.17-17.14,3.76-17.19,3.55-.05-.21,7.57-2.13,17.02-4.3,9.44-2.17,17.14-3.76,17.19-3.55Z"/>
      <path class="cls-2" d="m110.11,213.48c.05.21-7.57,2.13-17.02,4.3-9.45,2.17-17.14,3.76-17.19,3.55-.05-.21,7.57-2.13,17.02-4.3,9.44-2.17,17.14-3.76,17.19-3.55Z"/>
    </g>
  </g>
  <g id="Screen">
    <g>
      <g>
        <rect class="cls-3" x="115.11" y="68.29" width="272.62" height="240.08"/>
        <path class="cls-12" d="m387.73,308.38c0-1.86-.09-95.6-.22-240.08l.22.22c-78.41.01-172.13.03-272.59.04h-.02l.26-.26c-.01,87.26-.02,169.42-.03,240.08l-.23-.23c162.7.14,270.63.23,272.62.23-1.99,0-109.91.09-272.62.23h-.23s0-.23,0-.23c0-70.66-.02-152.82-.03-240.08v-.26h.28c100.46.01,194.18.03,272.59.04h.22v.22c-.13,144.48-.22,238.23-.22,240.08Z"/>
      </g>
      <g>
        <g>
          <g>
            <path class="cls-7" d="m158.65,159.31h-15.47c-1.07,0-1.94-.87-1.94-1.94v-21.41c0-1.07.87-1.94,1.94-1.94h9.81l7.59,7.83v15.52c0,1.07-.87,1.94-1.94,1.94Z"/>
            <path class="cls-7" d="m152.99,134.04v6.03c0,.99.81,1.8,1.8,1.8h5.79s-7.59-7.83-7.59-7.83Z"/>
            <g class="cls-5">
              <path d="m153.07,140.59s-.08,1.46,1.59,1.94c.06.02.13.03.19.04.76.14,5.74,1.02,5.74.91v-1.62h-5.79s-1.45-.05-1.72-1.27Z"/>
            </g>
            <g class="cls-9">
              <path class="cls-1" d="m152.99,134.04v6.03c0,.99.81,1.8,1.8,1.8h5.79s-7.59-7.83-7.59-7.83Z"/>
            </g>
          </g>
          <path class="cls-2" d="m151.7,139.82c0,.08-1.6.14-3.58.14s-3.58-.06-3.58-.14,1.6-.14,3.58-.14,3.58.06,3.58.14Z"/>
          <path class="cls-2" d="m156.32,143.22c0,.08-2.64.14-5.89.14s-5.89-.06-5.89-.14,2.64-.14,5.89-.14,5.89.06,5.89.14Z"/>
          <path class="cls-2" d="m157.38,146.07c0,.08-2.87.14-6.42.14s-6.42-.06-6.42-.14,2.87-.14,6.42-.14,6.42.06,6.42.14Z"/>
          <path class="cls-2" d="m157.38,148.75c0,.08-2.87.14-6.42.14s-6.42-.06-6.42-.14,2.87-.14,6.42-.14,6.42.06,6.42.14Z"/>
          <path class="cls-2" d="m157.38,151.43c0,.08-2.87.14-6.42.14s-6.42-.06-6.42-.14,2.87-.14,6.42-.14,6.42.06,6.42.14Z"/>
          <path class="cls-2" d="m157.38,154.12c0,.08-2.87.14-6.42.14s-6.42-.06-6.42-.14,2.87-.14,6.42-.14,6.42.06,6.42.14Z"/>
        </g>
        <g>
          <path class="cls-12" d="m173.73,136.72c.33,0,.65.07.86.22l-.27.72c-.15-.1-.33-.17-.53-.17-.4,0-.6.22-.6.66v.24h1.12v.76h-1.09v3.28h-.95v-3.28h-.67v-.76h.67v-.26c0-.85.51-1.41,1.46-1.41Zm1.71.4c0-.32.26-.57.61-.57s.61.24.61.55c0,.34-.25.6-.61.6s-.61-.25-.61-.57Zm.13,1.24h.95v4.07h-.95v-4.07Z"/>
          <path class="cls-12" d="m177.78,136.77h.95v5.66h-.95v-5.66Z"/>
          <path class="cls-12" d="m183.8,140.7h-3.2c.11.6.61.98,1.32.98.46,0,.82-.15,1.11-.44l.51.59c-.37.43-.94.66-1.64.66-1.37,0-2.25-.88-2.25-2.09s.89-2.08,2.11-2.08,2.06.83,2.06,2.11c0,.08,0,.19-.02.28Zm-3.2-.63h2.31c-.08-.59-.53-.99-1.15-.99s-1.07.4-1.16.99Z"/>
          <path class="cls-12" d="m188.75,140.1v2.33h-.95v-2.21c0-.73-.36-1.08-.97-1.08-.68,0-1.14.41-1.14,1.23v2.06h-.95v-4.07h.91v.53c.31-.37.81-.57,1.4-.57.98,0,1.7.56,1.7,1.79Z"/>
          <path class="cls-12" d="m193.38,140.04v2.39h-.9v-.5c-.23.35-.67.55-1.28.55-.93,0-1.52-.51-1.52-1.22s.46-1.21,1.69-1.21h1.05v-.06c0-.56-.34-.88-1.01-.88-.46,0-.93.15-1.24.4l-.37-.69c.43-.34,1.07-.5,1.72-.5,1.17,0,1.85.56,1.85,1.73Zm-.95,1.11v-.47h-.98c-.65,0-.82.24-.82.54,0,.34.29.56.78.56s.87-.21,1.03-.63Z"/>
          <path class="cls-12" d="m201.41,140.1v2.33h-.95v-2.21c0-.73-.34-1.08-.92-1.08-.63,0-1.06.41-1.06,1.22v2.07h-.95v-2.21c0-.73-.34-1.08-.92-1.08-.63,0-1.06.41-1.06,1.22v2.07h-.95v-4.07h.91v.52c.31-.37.78-.57,1.33-.57.6,0,1.09.22,1.37.68.33-.42.88-.68,1.53-.68.98,0,1.67.56,1.67,1.79Z"/>
          <path class="cls-12" d="m206.49,140.7h-3.2c.11.6.61.98,1.32.98.46,0,.82-.15,1.11-.44l.51.59c-.37.43-.94.66-1.64.66-1.37,0-2.25-.88-2.25-2.09s.89-2.08,2.11-2.08,2.06.83,2.06,2.11c0,.08,0,.19-.02.28Zm-3.2-.63h2.31c-.08-.59-.53-.99-1.15-.99s-1.07.4-1.16.99Z"/>
          <path class="cls-12" d="m207.11,141.85c0-.38.28-.63.63-.63s.63.25.63.63-.28.63-.63.63-.63-.27-.63-.63Z"/>
          <path class="cls-12" d="m213.2,136.77v5.66h-.92v-.53c-.32.39-.79.58-1.35.58-1.18,0-2.06-.82-2.06-2.09s.88-2.08,2.06-2.08c.53,0,.99.18,1.31.55v-2.09h.95Zm-.94,3.62c0-.78-.53-1.27-1.21-1.27s-1.21.5-1.21,1.27.53,1.27,1.21,1.27,1.21-.5,1.21-1.27Z"/>
          <path class="cls-12" d="m214.12,140.4c0-1.22.92-2.08,2.17-2.08s2.17.86,2.17,2.08-.91,2.09-2.17,2.09-2.17-.87-2.17-2.09Zm3.38,0c0-.78-.52-1.27-1.21-1.27s-1.21.5-1.21,1.27.52,1.27,1.21,1.27,1.21-.5,1.21-1.27Z"/>
          <path class="cls-12" d="m219.05,140.4c0-1.22.92-2.08,2.2-2.08.79,0,1.43.33,1.74.95l-.73.43c-.24-.39-.61-.56-1.01-.56-.7,0-1.24.49-1.24,1.27s.53,1.27,1.24,1.27c.4,0,.77-.18,1.01-.56l.73.43c-.31.61-.95.95-1.74.95-1.29,0-2.2-.87-2.2-2.09Z"/>
        </g>
        <g>
          <path class="cls-6" d="m171.82,148.72c0-1.19.91-2.08,2.14-2.08.59,0,1.13.2,1.49.59l-.27.27c-.33-.34-.74-.48-1.21-.48-.99,0-1.73.72-1.73,1.69s.74,1.69,1.73,1.69c.47,0,.87-.15,1.21-.49l.27.27c-.36.4-.9.6-1.5.6-1.22,0-2.13-.88-2.13-2.08Z"/>
          <path class="cls-6" d="m175.84,149.23c0-.91.66-1.56,1.56-1.56s1.56.65,1.56,1.56-.66,1.56-1.56,1.56-1.56-.65-1.56-1.56Zm2.7,0c0-.72-.48-1.19-1.14-1.19s-1.14.48-1.14,1.19.49,1.2,1.14,1.2,1.14-.48,1.14-1.2Z"/>
          <path class="cls-6" d="m184.86,148.98v1.78h-.41v-1.74c0-.65-.33-.98-.88-.98-.63,0-1.03.41-1.03,1.11v1.61h-.41v-1.74c0-.65-.33-.98-.89-.98-.62,0-1.03.41-1.03,1.11v1.61h-.41v-3.07h.4v.56c.22-.37.61-.58,1.12-.58s.9.22,1.09.65c.22-.4.66-.65,1.21-.65.75,0,1.24.43,1.24,1.31Z"/>
          <path class="cls-6" d="m189.08,149.23c0,.93-.65,1.56-1.53,1.56-.49,0-.91-.21-1.17-.61v1.71h-.41v-4.2h.4v.61c.25-.41.68-.63,1.18-.63.87,0,1.53.63,1.53,1.56Zm-.41,0c0-.71-.5-1.19-1.14-1.19s-1.14.48-1.14,1.19.49,1.2,1.14,1.2,1.14-.48,1.14-1.2Z"/>
          <path class="cls-6" d="m189.93,146.44h.41v4.33h-.41v-4.33Z"/>
          <path class="cls-6" d="m194.16,149.36h-2.56c.05.64.54,1.07,1.21,1.07.37,0,.71-.13.94-.4l.23.27c-.27.33-.7.5-1.18.5-.96,0-1.61-.65-1.61-1.56s.64-1.56,1.5-1.56,1.49.64,1.49,1.56c0,.04,0,.08,0,.13Zm-2.56-.31h2.17c-.05-.6-.49-1.02-1.09-1.02s-1.03.42-1.08,1.02Z"/>
          <path class="cls-6" d="m196.62,150.57c-.16.15-.41.22-.65.22-.58,0-.9-.33-.9-.89v-1.85h-.55v-.35h.55v-.67h.41v.67h.93v.35h-.93v1.83c0,.36.19.56.53.56.17,0,.34-.05.45-.16l.15.3Z"/>
          <path class="cls-6" d="m199.93,149.36h-2.56c.05.64.54,1.07,1.21,1.07.37,0,.71-.13.94-.4l.23.27c-.27.33-.7.5-1.18.5-.96,0-1.61-.65-1.61-1.56s.64-1.56,1.5-1.56,1.49.64,1.49,1.56c0,.04,0,.08,0,.13Zm-2.56-.31h2.17c-.05-.6-.49-1.02-1.09-1.02s-1.03.42-1.08,1.02Z"/>
        </g>
        <rect class="cls-7" x="170.04" y="154.09" width="181.21" height="3.32" rx="1.66" ry="1.66"/>
        <g>
          <path class="cls-12" d="m360.45,152.78c.1.1-.98,1.35-2.41,2.78-1.43,1.43-2.68,2.52-2.78,2.41-.1-.1.98-1.35,2.41-2.78s2.68-2.52,2.78-2.41Z"/>
          <path class="cls-12" d="m360.34,157.97c-.1.1-1.35-.98-2.78-2.41-1.43-1.43-2.52-2.68-2.41-2.78.1-.1,1.35.98,2.78,2.41s2.51,2.68,2.41,2.78Z"/>
        </g>
        <g>
          <path class="cls-6" d="m334.97,149.59c0,.68-.5,1.21-1.48,1.21-.59,0-1.15-.2-1.47-.52l.2-.33c.26.27.73.47,1.26.47.68,0,1.05-.31,1.05-.82s-.34-.81-1.1-.81h-.29v-.31l1.13-1.42h-2.09v-.37h2.62v.3l-1.15,1.45c.87.05,1.31.51,1.31,1.16Z"/>
          <path class="cls-6" d="m341.68,146.68v4.08h-.41v-3.26l-1.6,2.75h-.2l-1.6-2.73v3.25h-.41v-4.08h.36l1.77,3.02,1.75-3.02h.36Z"/>
          <path class="cls-6" d="m346.41,149.67c0,.69-.51,1.09-1.53,1.09h-1.88v-4.08h1.76c.91,0,1.43.38,1.43,1.05,0,.47-.25.77-.62.93.52.12.84.46.84,1.01Zm-2.98-2.63v1.48h1.3c.65,0,1.03-.25,1.03-.74s-.38-.74-1.03-.74h-1.3Zm2.55,2.6c0-.53-.39-.76-1.11-.76h-1.44v1.53h1.44c.72,0,1.11-.23,1.11-.77Z"/>
        </g>
      </g>
      <g>
        <g>
          <g>
            <path class="cls-7" d="m158.65,199.66h-15.47c-1.07,0-1.94-.87-1.94-1.94v-21.41c0-1.07.87-1.94,1.94-1.94h9.81l7.59,7.83v15.52c0,1.07-.87,1.94-1.94,1.94Z"/>
            <path class="cls-7" d="m152.99,174.38v6.03c0,.99.81,1.8,1.8,1.8h5.79s-7.59-7.83-7.59-7.83Z"/>
            <g class="cls-5">
              <path d="m153.07,180.93s-.08,1.46,1.59,1.94c.06.02.13.03.19.04.76.14,5.74,1.02,5.74.91v-1.62h-5.79s-1.45-.05-1.72-1.27Z"/>
            </g>
            <g class="cls-9">
              <path class="cls-1" d="m152.99,174.38v6.03c0,.99.81,1.8,1.8,1.8h5.79s-7.59-7.83-7.59-7.83Z"/>
            </g>
          </g>
          <path class="cls-2" d="m151.7,180.16c0,.08-1.6.14-3.58.14s-3.58-.06-3.58-.14,1.6-.14,3.58-.14,3.58.06,3.58.14Z"/>
          <path class="cls-2" d="m156.32,183.56c0,.08-2.64.14-5.89.14s-5.89-.06-5.89-.14,2.64-.14,5.89-.14,5.89.06,5.89.14Z"/>
          <path class="cls-2" d="m157.38,186.41c0,.08-2.87.14-6.42.14s-6.42-.06-6.42-.14,2.87-.14,6.42-.14,6.42.06,6.42.14Z"/>
          <path class="cls-2" d="m157.38,189.09c0,.08-2.87.14-6.42.14s-6.42-.06-6.42-.14,2.87-.14,6.42-.14,6.42.06,6.42.14Z"/>
          <path class="cls-2" d="m157.38,191.78c0,.08-2.87.14-6.42.14s-6.42-.06-6.42-.14,2.87-.14,6.42-.14,6.42.06,6.42.14Z"/>
          <path class="cls-2" d="m157.38,194.46c0,.08-2.87.14-6.42.14s-6.42-.06-6.42-.14,2.87-.14,6.42-.14,6.42.06,6.42.14Z"/>
        </g>
        <g>
          <path class="cls-12" d="m173.73,177.06c.33,0,.65.07.86.22l-.27.72c-.15-.1-.33-.17-.53-.17-.4,0-.6.22-.6.66v.24h1.12v.76h-1.09v3.28h-.95v-3.28h-.67v-.76h.67v-.26c0-.85.51-1.41,1.46-1.41Zm1.71.4c0-.32.26-.57.61-.57s.61.24.61.55c0,.34-.25.59-.61.59s-.61-.25-.61-.57Zm.13,1.24h.95v4.07h-.95v-4.07Z"/>
          <path class="cls-12" d="m177.78,177.11h.95v5.66h-.95v-5.66Z"/>
          <path class="cls-12" d="m183.8,181.04h-3.2c.11.6.61.98,1.32.98.46,0,.82-.15,1.11-.44l.51.59c-.37.44-.94.66-1.64.66-1.37,0-2.25-.88-2.25-2.09s.89-2.08,2.11-2.08,2.06.83,2.06,2.11c0,.08,0,.19-.02.28Zm-3.2-.63h2.31c-.08-.59-.53-.99-1.15-.99s-1.07.4-1.16.99Z"/>
          <path class="cls-12" d="m188.75,180.44v2.33h-.95v-2.21c0-.73-.36-1.08-.97-1.08-.68,0-1.14.41-1.14,1.23v2.06h-.95v-4.07h.91v.53c.31-.37.81-.57,1.4-.57.98,0,1.7.56,1.7,1.79Z"/>
          <path class="cls-12" d="m193.38,180.39v2.39h-.9v-.5c-.23.35-.67.55-1.28.55-.93,0-1.52-.51-1.52-1.22s.46-1.21,1.69-1.21h1.05v-.06c0-.56-.34-.89-1.01-.89-.46,0-.93.15-1.24.4l-.37-.69c.43-.34,1.07-.5,1.72-.5,1.17,0,1.85.56,1.85,1.73Zm-.95,1.11v-.47h-.98c-.65,0-.82.24-.82.54,0,.34.29.56.78.56s.87-.21,1.03-.63Z"/>
          <path class="cls-12" d="m201.41,180.44v2.33h-.95v-2.21c0-.73-.34-1.08-.92-1.08-.63,0-1.06.41-1.06,1.22v2.07h-.95v-2.21c0-.73-.34-1.08-.92-1.08-.63,0-1.06.41-1.06,1.22v2.07h-.95v-4.07h.91v.52c.31-.37.78-.56,1.33-.56.6,0,1.09.22,1.37.68.33-.42.88-.68,1.53-.68.98,0,1.67.56,1.67,1.79Z"/>
          <path class="cls-12" d="m206.49,181.04h-3.2c.11.6.61.98,1.32.98.46,0,.82-.15,1.11-.44l.51.59c-.37.44-.94.66-1.64.66-1.37,0-2.25-.88-2.25-2.09s.89-2.08,2.11-2.08,2.06.83,2.06,2.11c0,.08,0,.19-.02.28Zm-3.2-.63h2.31c-.08-.59-.53-.99-1.15-.99s-1.07.4-1.16.99Z"/>
          <path class="cls-12" d="m207.11,182.2c0-.38.28-.63.63-.63s.63.25.63.63-.28.63-.63.63-.63-.27-.63-.63Z"/>
          <path class="cls-12" d="m208.03,184.07l.27-.71c.14.11.34.16.56.16.35,0,.55-.21.55-.65v-4.17h.95v4.15c0,.89-.51,1.46-1.42,1.46-.35,0-.69-.07-.92-.24Zm1.24-6.61c0-.32.26-.57.61-.57s.61.24.61.55c0,.34-.25.59-.61.59s-.61-.25-.61-.57Z"/>
          <path class="cls-12" d="m215.94,180.74c0,1.27-.88,2.09-2.07,2.09-.52,0-.98-.18-1.3-.55v1.98h-.95v-5.55h.91v.53c.32-.39.79-.58,1.35-.58,1.19,0,2.07.82,2.07,2.08Zm-.97,0c0-.78-.52-1.27-1.21-1.27s-1.21.5-1.21,1.27.53,1.27,1.21,1.27,1.21-.5,1.21-1.27Z"/>
          <path class="cls-12" d="m220.9,178.7v3.46c0,1.48-.77,2.15-2.2,2.15-.76,0-1.52-.2-1.98-.58l.43-.72c.36.3.94.49,1.5.49.9,0,1.3-.41,1.3-1.24v-.21c-.34.37-.82.54-1.37.54-1.17,0-2.06-.79-2.06-1.98s.89-1.96,2.06-1.96c.57,0,1.08.18,1.41.59v-.54h.91Zm-.94,1.91c0-.69-.52-1.15-1.24-1.15s-1.24.47-1.24,1.15.52,1.17,1.24,1.17,1.24-.47,1.24-1.17Z"/>
        </g>
        <g>
          <path class="cls-6" d="m172.18,187.02h.43v3.71h2.29v.37h-2.72v-4.08Z"/>
          <path class="cls-6" d="m175.17,189.57c0-.91.66-1.56,1.56-1.56s1.56.65,1.56,1.56-.66,1.56-1.56,1.56-1.56-.65-1.56-1.56Zm2.7,0c0-.72-.48-1.19-1.14-1.19s-1.14.48-1.14,1.19.49,1.2,1.14,1.2,1.14-.48,1.14-1.2Z"/>
          <path class="cls-6" d="m181.43,189.2v1.9h-.4v-.48c-.19.31-.55.51-1.05.51-.69,0-1.12-.36-1.12-.89,0-.47.3-.87,1.18-.87h.97v-.19c0-.53-.3-.81-.87-.81-.4,0-.77.14-1.02.36l-.19-.31c.31-.26.76-.41,1.25-.41.79,0,1.24.4,1.24,1.19Zm-.41.98v-.5h-.96c-.59,0-.79.23-.79.55,0,.36.29.58.78.58s.81-.22.97-.62Z"/>
          <path class="cls-6" d="m185.36,186.78v4.33h-.4v-.61c-.25.41-.68.64-1.18.64-.87,0-1.53-.64-1.53-1.56s.65-1.56,1.53-1.56c.49,0,.91.21,1.17.61v-1.84h.41Zm-.41,2.79c0-.72-.49-1.19-1.14-1.19s-1.14.48-1.14,1.19.49,1.2,1.14,1.2,1.14-.48,1.14-1.2Z"/>
          <path class="cls-6" d="m186.41,187.07c0-.16.13-.29.3-.29s.3.13.3.29c0,.17-.13.3-.3.3s-.3-.13-.3-.3Zm.09.97h.41v3.07h-.41v-3.07Z"/>
          <path class="cls-6" d="m190.89,189.33v1.78h-.41v-1.74c0-.65-.34-.98-.92-.98-.66,0-1.07.41-1.07,1.11v1.61h-.41v-3.07h.4v.57c.22-.37.64-.59,1.17-.59.75,0,1.26.43,1.26,1.31Z"/>
          <path class="cls-6" d="m194.87,188.04v2.69c0,1.05-.52,1.53-1.53,1.53-.56,0-1.11-.17-1.43-.47l.21-.31c.29.26.73.42,1.21.42.78,0,1.13-.36,1.13-1.11v-.39c-.26.39-.69.59-1.19.59-.87,0-1.54-.61-1.54-1.49s.66-1.48,1.54-1.48c.51,0,.96.21,1.21.61v-.59h.4Zm-.4,1.46c0-.66-.49-1.12-1.17-1.12s-1.16.45-1.16,1.12.48,1.12,1.16,1.12,1.17-.46,1.17-1.12Z"/>
          <path class="cls-6" d="m197.28,190.81c0-.18.14-.31.31-.31s.31.13.31.31-.15.32-.31.32-.31-.14-.31-.32Z"/>
          <path class="cls-6" d="m198.51,190.81c0-.18.14-.31.31-.31s.31.13.31.31-.15.32-.31.32-.31-.14-.31-.32Z"/>
          <path class="cls-6" d="m199.75,190.81c0-.18.14-.31.31-.31s.31.13.31.31-.15.32-.31.32-.31-.14-.31-.32Z"/>
        </g>
        <path class="cls-6" d="m349.59,197.76h-177.89c-.92,0-1.66-.74-1.66-1.66h0c0-.92.74-1.66,1.66-1.66h177.89c.92,0,1.66.74,1.66,1.66h0c0,.92-.74,1.66-1.66,1.66Z"/>
        <path class="cls-7" d="m275.64,197.76h-103.95c-.92,0-1.66-.74-1.66-1.66h0c0-.92.74-1.66,1.66-1.66h103.95c.92,0,1.66.74,1.66,1.66h0c0,.92-.74,1.66-1.66,1.66Z"/>
        <g>
          <path class="cls-12" d="m360.45,193.12c.1.1-.98,1.35-2.41,2.78-1.43,1.43-2.68,2.52-2.78,2.41-.1-.1.98-1.35,2.41-2.78s2.68-2.52,2.78-2.41Z"/>
          <path class="cls-12" d="m360.34,198.32c-.1.1-1.35-.98-2.78-2.41-1.43-1.43-2.52-2.68-2.41-2.78.1-.1,1.35.98,2.78,2.41,1.43,1.43,2.51,2.68,2.41,2.78Z"/>
        </g>
        <g>
          <path class="cls-6" d="m335.06,190.73v.37h-2.86v-.3l1.7-1.66c.46-.45.55-.73.55-1.01,0-.47-.33-.76-.96-.76-.48,0-.85.15-1.11.45l-.3-.26c.32-.37.82-.58,1.45-.58.83,0,1.35.42,1.35,1.1,0,.39-.12.74-.67,1.28l-1.39,1.36h2.24Z"/>
          <path class="cls-6" d="m335.55,189.06c0-1.3.68-2.08,1.63-2.08s1.63.78,1.63,2.08-.69,2.08-1.63,2.08-1.63-.78-1.63-2.08Zm2.83,0c0-1.09-.49-1.69-1.2-1.69s-1.2.6-1.2,1.69.49,1.69,1.2,1.69,1.2-.6,1.2-1.69Z"/>
          <path class="cls-6" d="m342.34,189.56l-.72.66v.87h-.41v-4.33h.41v2.93l1.83-1.67h.51l-1.31,1.25,1.43,1.81h-.51l-1.24-1.54Z"/>
          <path class="cls-6" d="m347.81,189.57c0,.93-.65,1.56-1.53,1.56-.51,0-.93-.22-1.18-.64v.61h-.4v-4.33h.41v1.84c.26-.4.68-.61,1.17-.61.87,0,1.53.63,1.53,1.56Zm-.41,0c0-.72-.5-1.19-1.14-1.19s-1.14.48-1.14,1.19.49,1.2,1.14,1.2,1.14-.48,1.14-1.2Z"/>
        </g>
      </g>
      <g>
        <g>
          <g>
            <path class="cls-7" d="m158.65,240.55h-15.47c-1.07,0-1.94-.87-1.94-1.94v-21.41c0-1.07.87-1.94,1.94-1.94h9.81l7.59,7.83v15.52c0,1.07-.87,1.94-1.94,1.94Z"/>
            <path class="cls-7" d="m152.99,215.27v6.03c0,.99.81,1.8,1.8,1.8h5.79s-7.59-7.83-7.59-7.83Z"/>
            <g class="cls-5">
              <path d="m153.07,221.82s-.08,1.46,1.59,1.94c.06.02.13.03.19.04.76.14,5.74,1.02,5.74.91v-1.62h-5.79s-1.45-.05-1.72-1.27Z"/>
            </g>
            <g class="cls-9">
              <path class="cls-1" d="m152.99,215.27v6.03c0,.99.81,1.8,1.8,1.8h5.79s-7.59-7.83-7.59-7.83Z"/>
            </g>
          </g>
          <path class="cls-2" d="m151.7,221.05c0,.08-1.6.14-3.58.14s-3.58-.06-3.58-.14,1.6-.14,3.58-.14,3.58.06,3.58.14Z"/>
          <path class="cls-2" d="m156.32,224.46c0,.08-2.64.14-5.89.14s-5.89-.06-5.89-.14,2.64-.14,5.89-.14,5.89.06,5.89.14Z"/>
          <path class="cls-2" d="m157.38,227.3c0,.08-2.87.14-6.42.14s-6.42-.06-6.42-.14,2.87-.14,6.42-.14,6.42.06,6.42.14Z"/>
          <path class="cls-2" d="m157.38,229.99c0,.08-2.87.14-6.42.14s-6.42-.06-6.42-.14,2.87-.14,6.42-.14,6.42.06,6.42.14Z"/>
          <path class="cls-2" d="m157.38,232.67c0,.08-2.87.14-6.42.14s-6.42-.06-6.42-.14,2.87-.14,6.42-.14,6.42.06,6.42.14Z"/>
          <path class="cls-2" d="m157.38,235.35c0,.08-2.87.14-6.42.14s-6.42-.06-6.42-.14,2.87-.14,6.42-.14,6.42.06,6.42.14Z"/>
        </g>
        <g>
          <path class="cls-12" d="m173.73,217.95c.33,0,.65.07.86.22l-.27.72c-.15-.1-.33-.17-.53-.17-.4,0-.6.22-.6.66v.24h1.12v.76h-1.09v3.28h-.95v-3.28h-.67v-.76h.67v-.26c0-.85.51-1.41,1.46-1.41Zm1.71.4c0-.32.26-.57.61-.57s.61.24.61.55c0,.34-.25.6-.61.6s-.61-.25-.61-.57Zm.13,1.24h.95v4.07h-.95v-4.07Z"/>
          <path class="cls-12" d="m177.78,218.01h.95v5.66h-.95v-5.66Z"/>
          <path class="cls-12" d="m183.8,221.94h-3.2c.11.59.61.98,1.32.98.46,0,.82-.15,1.11-.44l.51.59c-.37.43-.94.66-1.64.66-1.37,0-2.25-.88-2.25-2.09s.89-2.08,2.11-2.08,2.06.83,2.06,2.11c0,.08,0,.19-.02.28Zm-3.2-.63h2.31c-.08-.59-.53-.99-1.15-.99s-1.07.4-1.16.99Z"/>
          <path class="cls-12" d="m188.75,221.33v2.33h-.95v-2.21c0-.72-.36-1.08-.97-1.08-.68,0-1.14.41-1.14,1.23v2.06h-.95v-4.07h.91v.53c.31-.37.81-.57,1.4-.57.98,0,1.7.56,1.7,1.79Z"/>
          <path class="cls-12" d="m193.38,221.28v2.39h-.9v-.5c-.23.35-.67.55-1.28.55-.93,0-1.52-.51-1.52-1.22s.46-1.21,1.69-1.21h1.05v-.06c0-.56-.34-.88-1.01-.88-.46,0-.93.15-1.24.4l-.37-.69c.43-.34,1.07-.5,1.72-.5,1.17,0,1.85.56,1.85,1.73Zm-.95,1.11v-.47h-.98c-.65,0-.82.24-.82.54,0,.34.29.56.78.56s.87-.21,1.03-.63Z"/>
          <path class="cls-12" d="m201.41,221.33v2.33h-.95v-2.21c0-.72-.34-1.08-.92-1.08-.63,0-1.06.41-1.06,1.22v2.07h-.95v-2.21c0-.72-.34-1.08-.92-1.08-.63,0-1.06.41-1.06,1.22v2.07h-.95v-4.07h.91v.52c.31-.37.78-.56,1.33-.56.6,0,1.09.22,1.37.68.33-.42.88-.68,1.53-.68.98,0,1.67.56,1.67,1.79Z"/>
          <path class="cls-12" d="m206.49,221.94h-3.2c.11.59.61.98,1.32.98.46,0,.82-.15,1.11-.44l.51.59c-.37.43-.94.66-1.64.66-1.37,0-2.25-.88-2.25-2.09s.89-2.08,2.11-2.08,2.06.83,2.06,2.11c0,.08,0,.19-.02.28Zm-3.2-.63h2.31c-.08-.59-.53-.99-1.15-.99s-1.07.4-1.16.99Z"/>
          <path class="cls-12" d="m207.11,223.09c0-.38.28-.63.63-.63s.63.25.63.63-.28.63-.63.63-.63-.27-.63-.63Z"/>
          <path class="cls-12" d="m213.62,221.63c0,1.27-.88,2.09-2.07,2.09-.52,0-.98-.18-1.3-.55v1.98h-.95v-5.55h.91v.53c.32-.39.79-.58,1.35-.58,1.19,0,2.07.82,2.07,2.08Zm-.97,0c0-.78-.52-1.27-1.21-1.27s-1.21.5-1.21,1.27.53,1.27,1.21,1.27,1.21-.5,1.21-1.27Z"/>
          <path class="cls-12" d="m218.54,221.33v2.33h-.95v-2.21c0-.72-.36-1.08-.97-1.08-.68,0-1.14.41-1.14,1.23v2.06h-.95v-4.07h.91v.53c.31-.37.81-.57,1.4-.57.98,0,1.7.56,1.7,1.79Z"/>
          <path class="cls-12" d="m223.84,219.59v3.46c0,1.48-.77,2.15-2.2,2.15-.76,0-1.52-.2-1.98-.58l.43-.72c.36.3.94.49,1.5.49.9,0,1.3-.41,1.3-1.24v-.21c-.34.37-.82.54-1.37.54-1.17,0-2.06-.79-2.06-1.98s.89-1.96,2.06-1.96c.57,0,1.08.18,1.41.59v-.54h.91Zm-.94,1.91c0-.69-.52-1.15-1.24-1.15s-1.24.47-1.24,1.15.52,1.17,1.24,1.17,1.24-.47,1.24-1.17Z"/>
        </g>
        <g>
          <path class="cls-6" d="m172.18,227.92h.43v3.71h2.29v.37h-2.72v-4.08Z"/>
          <path class="cls-6" d="m175.17,230.46c0-.91.66-1.56,1.56-1.56s1.56.65,1.56,1.56-.66,1.56-1.56,1.56-1.56-.65-1.56-1.56Zm2.7,0c0-.72-.48-1.19-1.14-1.19s-1.14.48-1.14,1.19.49,1.2,1.14,1.2,1.14-.48,1.14-1.2Z"/>
          <path class="cls-6" d="m181.43,230.1v1.9h-.4v-.48c-.19.31-.55.51-1.05.51-.69,0-1.12-.36-1.12-.89,0-.47.3-.87,1.18-.87h.97v-.19c0-.52-.3-.81-.87-.81-.4,0-.77.14-1.02.36l-.19-.31c.31-.26.76-.41,1.25-.41.79,0,1.24.4,1.24,1.19Zm-.41.98v-.5h-.96c-.59,0-.79.23-.79.55,0,.36.29.58.78.58s.81-.22.97-.62Z"/>
          <path class="cls-6" d="m185.36,227.67v4.33h-.4v-.61c-.25.41-.68.64-1.18.64-.87,0-1.53-.64-1.53-1.56s.65-1.56,1.53-1.56c.49,0,.91.21,1.17.61v-1.84h.41Zm-.41,2.79c0-.72-.49-1.19-1.14-1.19s-1.14.48-1.14,1.19.49,1.2,1.14,1.2,1.14-.48,1.14-1.2Z"/>
          <path class="cls-6" d="m186.41,227.96c0-.16.13-.29.3-.29s.3.13.3.29c0,.17-.13.3-.3.3s-.3-.13-.3-.3Zm.09.97h.41v3.07h-.41v-3.07Z"/>
          <path class="cls-6" d="m190.89,230.22v1.78h-.41v-1.74c0-.65-.34-.98-.92-.98-.66,0-1.07.41-1.07,1.11v1.61h-.41v-3.07h.4v.57c.22-.37.64-.59,1.17-.59.75,0,1.26.43,1.26,1.31Z"/>
          <path class="cls-6" d="m194.87,228.93v2.69c0,1.05-.52,1.53-1.53,1.53-.56,0-1.11-.17-1.43-.47l.21-.31c.29.26.73.42,1.21.42.78,0,1.13-.36,1.13-1.11v-.39c-.26.39-.69.59-1.19.59-.87,0-1.54-.61-1.54-1.49s.66-1.48,1.54-1.48c.51,0,.96.21,1.21.61v-.59h.4Zm-.4,1.46c0-.67-.49-1.12-1.17-1.12s-1.16.45-1.16,1.12.48,1.12,1.16,1.12,1.17-.46,1.17-1.12Z"/>
          <path class="cls-6" d="m197.28,231.71c0-.18.14-.32.31-.32s.31.13.31.32-.15.32-.31.32-.31-.14-.31-.32Z"/>
          <path class="cls-6" d="m198.51,231.71c0-.18.14-.32.31-.32s.31.13.31.32-.15.32-.31.32-.31-.14-.31-.32Z"/>
          <path class="cls-6" d="m199.75,231.71c0-.18.14-.32.31-.32s.31.13.31.32-.15.32-.31.32-.31-.14-.31-.32Z"/>
        </g>
        <path class="cls-6" d="m349.59,238.65h-177.89c-.92,0-1.66-.74-1.66-1.66h0c0-.92.74-1.66,1.66-1.66h177.89c.92,0,1.66.74,1.66,1.66h0c0,.92-.74,1.66-1.66,1.66Z"/>
        <path class="cls-7" d="m211.15,238.65h-39.45c-.92,0-1.66-.74-1.66-1.66h0c0-.92.74-1.66,1.66-1.66h39.45c.92,0,1.66.74,1.66,1.66h0c0,.92-.74,1.66-1.66,1.66Z"/>
        <g>
          <path class="cls-12" d="m360.45,234.01c.1.1-.98,1.35-2.41,2.78-1.43,1.43-2.68,2.52-2.78,2.41-.1-.1.98-1.35,2.41-2.78s2.68-2.52,2.78-2.41Z"/>
          <path class="cls-12" d="m360.34,239.21c-.1.1-1.35-.98-2.78-2.41-1.43-1.43-2.52-2.68-2.41-2.78.1-.1,1.35.98,2.78,2.41s2.51,2.68,2.41,2.78Z"/>
        </g>
        <g>
          <path class="cls-6" d="m334.97,230.82c0,.68-.5,1.21-1.48,1.21-.59,0-1.15-.2-1.47-.52l.2-.33c.26.27.73.47,1.26.47.68,0,1.05-.31,1.05-.82s-.34-.81-1.1-.81h-.29v-.31l1.13-1.42h-2.09v-.37h2.62v.3l-1.15,1.45c.87.05,1.31.51,1.31,1.16Z"/>
          <path class="cls-6" d="m338.31,231.62v.37h-2.86v-.3l1.7-1.66c.46-.45.55-.73.55-1.01,0-.47-.33-.76-.96-.76-.48,0-.85.15-1.11.46l-.3-.26c.32-.37.82-.58,1.45-.58.83,0,1.35.42,1.35,1.1,0,.39-.12.74-.67,1.28l-1.39,1.36h2.24Z"/>
          <path class="cls-6" d="m344.96,227.92v4.08h-.41v-3.26l-1.6,2.75h-.2l-1.6-2.73v3.25h-.41v-4.08h.36l1.77,3.03,1.75-3.03h.36Z"/>
          <path class="cls-6" d="m349.69,230.91c0,.69-.51,1.09-1.53,1.09h-1.88v-4.08h1.76c.91,0,1.43.38,1.43,1.05,0,.47-.25.78-.62.93.52.12.84.46.84,1.01Zm-2.98-2.63v1.48h1.3c.65,0,1.03-.25,1.03-.74s-.38-.74-1.03-.74h-1.3Zm2.55,2.6c0-.53-.39-.76-1.11-.76h-1.44v1.53h1.44c.72,0,1.11-.23,1.11-.77Z"/>
        </g>
      </g>
      <g>
        <g>
          <g>
            <path class="cls-7" d="m158.65,281.44h-15.47c-1.07,0-1.94-.87-1.94-1.94v-21.41c0-1.07.87-1.94,1.94-1.94h9.81l7.59,7.83v15.52c0,1.07-.87,1.94-1.94,1.94Z"/>
            <path class="cls-7" d="m152.99,256.16v6.03c0,.99.81,1.8,1.8,1.8h5.79s-7.59-7.83-7.59-7.83Z"/>
            <g class="cls-5">
              <path d="m153.07,262.72s-.08,1.46,1.59,1.94c.06.02.13.03.19.04.76.14,5.74,1.02,5.74.91v-1.62h-5.79s-1.45-.05-1.72-1.27Z"/>
            </g>
            <g class="cls-9">
              <path class="cls-1" d="m152.99,256.16v6.03c0,.99.81,1.8,1.8,1.8h5.79s-7.59-7.83-7.59-7.83Z"/>
            </g>
          </g>
          <path class="cls-2" d="m151.7,261.94c0,.08-1.6.14-3.58.14s-3.58-.06-3.58-.14,1.6-.14,3.58-.14,3.58.06,3.58.14Z"/>
          <path class="cls-2" d="m156.32,265.35c0,.08-2.64.14-5.89.14s-5.89-.06-5.89-.14,2.64-.14,5.89-.14,5.89.06,5.89.14Z"/>
          <path class="cls-2" d="m157.38,268.19c0,.08-2.87.14-6.42.14s-6.42-.06-6.42-.14,2.87-.14,6.42-.14,6.42.06,6.42.14Z"/>
          <path class="cls-2" d="m157.38,270.88c0,.08-2.87.14-6.42.14s-6.42-.06-6.42-.14,2.87-.14,6.42-.14,6.42.06,6.42.14Z"/>
          <path class="cls-2" d="m157.38,273.56c0,.08-2.87.14-6.42.14s-6.42-.06-6.42-.14,2.87-.14,6.42-.14,6.42.06,6.42.14Z"/>
          <path class="cls-2" d="m157.38,276.25c0,.08-2.87.14-6.42.14s-6.42-.06-6.42-.14,2.87-.14,6.42-.14,6.42.06,6.42.14Z"/>
        </g>
        <g>
          <path class="cls-12" d="m173.73,258.85c.33,0,.65.07.86.22l-.27.72c-.15-.1-.33-.17-.53-.17-.4,0-.6.22-.6.66v.24h1.12v.76h-1.09v3.28h-.95v-3.28h-.67v-.76h.67v-.26c0-.85.51-1.41,1.46-1.41Zm1.71.4c0-.32.26-.57.61-.57s.61.24.61.55c0,.34-.25.6-.61.6s-.61-.25-.61-.57Zm.13,1.24h.95v4.07h-.95v-4.07Z"/>
          <path class="cls-12" d="m177.78,258.9h.95v5.66h-.95v-5.66Z"/>
          <path class="cls-12" d="m183.8,262.83h-3.2c.11.59.61.98,1.32.98.46,0,.82-.15,1.11-.44l.51.59c-.37.43-.94.66-1.64.66-1.37,0-2.25-.88-2.25-2.09s.89-2.08,2.11-2.08,2.06.83,2.06,2.11c0,.08,0,.19-.02.28Zm-3.2-.63h2.31c-.08-.59-.53-.99-1.15-.99s-1.07.4-1.16.99Z"/>
          <path class="cls-12" d="m188.75,262.23v2.34h-.95v-2.21c0-.72-.36-1.08-.97-1.08-.68,0-1.14.41-1.14,1.23v2.06h-.95v-4.07h.91v.53c.31-.37.81-.57,1.4-.57.98,0,1.7.56,1.7,1.79Z"/>
          <path class="cls-12" d="m193.38,262.17v2.39h-.9v-.5c-.23.35-.67.55-1.28.55-.93,0-1.52-.51-1.52-1.22s.46-1.21,1.69-1.21h1.05v-.06c0-.56-.34-.88-1.01-.88-.46,0-.93.15-1.24.4l-.37-.69c.43-.34,1.07-.5,1.72-.5,1.17,0,1.85.56,1.85,1.73Zm-.95,1.11v-.47h-.98c-.65,0-.82.24-.82.54,0,.34.29.56.78.56s.87-.21,1.03-.63Z"/>
          <path class="cls-12" d="m201.41,262.23v2.34h-.95v-2.21c0-.72-.34-1.08-.92-1.08-.63,0-1.06.41-1.06,1.22v2.07h-.95v-2.21c0-.72-.34-1.08-.92-1.08-.63,0-1.06.41-1.06,1.22v2.07h-.95v-4.07h.91v.52c.31-.37.78-.56,1.33-.56.6,0,1.09.22,1.37.68.33-.42.88-.68,1.53-.68.98,0,1.67.56,1.67,1.79Z"/>
          <path class="cls-12" d="m206.49,262.83h-3.2c.11.59.61.98,1.32.98.46,0,.82-.15,1.11-.44l.51.59c-.37.43-.94.66-1.64.66-1.37,0-2.25-.88-2.25-2.09s.89-2.08,2.11-2.08,2.06.83,2.06,2.11c0,.08,0,.19-.02.28Zm-3.2-.63h2.31c-.08-.59-.53-.99-1.15-.99s-1.07.4-1.16.99Z"/>
          <path class="cls-12" d="m207.11,263.98c0-.38.28-.63.63-.63s.63.25.63.63-.28.63-.63.63-.63-.27-.63-.63Z"/>
          <path class="cls-12" d="m213.62,262.52c0,1.27-.88,2.09-2.07,2.09-.52,0-.98-.18-1.3-.55v1.98h-.95v-5.55h.91v.53c.32-.39.79-.58,1.35-.58,1.19,0,2.07.82,2.07,2.08Zm-.97,0c0-.78-.52-1.27-1.21-1.27s-1.21.5-1.21,1.27.53,1.27,1.21,1.27,1.21-.5,1.21-1.27Z"/>
          <path class="cls-12" d="m218.52,258.9v5.66h-.92v-.53c-.32.39-.79.58-1.35.58-1.18,0-2.06-.82-2.06-2.09s.88-2.08,2.06-2.08c.53,0,.99.18,1.31.55v-2.09h.95Zm-.94,3.62c0-.78-.53-1.27-1.21-1.27s-1.21.5-1.21,1.27.53,1.27,1.21,1.27,1.21-.5,1.21-1.27Z"/>
          <path class="cls-12" d="m220.83,260.27v.24h1.12v.76h-1.09v3.28h-.95v-3.28h-.67v-.76h.67v-.26c0-.85.51-1.41,1.46-1.41.33,0,.65.07.86.22l-.27.72c-.14-.1-.33-.17-.53-.17-.4,0-.6.22-.6.66Z"/>
        </g>
        <g>
          <path class="cls-6" d="m172.18,268.81h.43v3.71h2.29v.37h-2.72v-4.08Z"/>
          <path class="cls-6" d="m175.17,271.36c0-.91.66-1.56,1.56-1.56s1.56.65,1.56,1.56-.66,1.56-1.56,1.56-1.56-.65-1.56-1.56Zm2.7,0c0-.72-.48-1.19-1.14-1.19s-1.14.48-1.14,1.19.49,1.2,1.14,1.2,1.14-.48,1.14-1.2Z"/>
          <path class="cls-6" d="m181.43,270.99v1.9h-.4v-.48c-.19.31-.55.51-1.05.51-.69,0-1.12-.36-1.12-.89,0-.47.3-.87,1.18-.87h.97v-.19c0-.52-.3-.81-.87-.81-.4,0-.77.14-1.02.36l-.19-.31c.31-.26.76-.41,1.25-.41.79,0,1.24.4,1.24,1.19Zm-.41.98v-.5h-.96c-.59,0-.79.23-.79.55,0,.36.29.58.78.58s.81-.22.97-.62Z"/>
          <path class="cls-6" d="m185.36,268.56v4.33h-.4v-.61c-.25.41-.68.64-1.18.64-.87,0-1.53-.64-1.53-1.56s.65-1.56,1.53-1.56c.49,0,.91.21,1.17.61v-1.84h.41Zm-.41,2.79c0-.72-.49-1.19-1.14-1.19s-1.14.48-1.14,1.19.49,1.2,1.14,1.2,1.14-.48,1.14-1.2Z"/>
          <path class="cls-6" d="m186.41,268.86c0-.16.13-.29.3-.29s.3.13.3.29c0,.17-.13.3-.3.3s-.3-.13-.3-.3Zm.09.97h.41v3.07h-.41v-3.07Z"/>
          <path class="cls-6" d="m190.89,271.11v1.78h-.41v-1.74c0-.65-.34-.98-.92-.98-.66,0-1.07.41-1.07,1.11v1.61h-.41v-3.07h.4v.57c.22-.37.64-.59,1.17-.59.75,0,1.26.43,1.26,1.31Z"/>
          <path class="cls-6" d="m194.87,269.82v2.69c0,1.05-.52,1.53-1.53,1.53-.56,0-1.11-.17-1.43-.47l.21-.31c.29.26.73.42,1.21.42.78,0,1.13-.36,1.13-1.11v-.39c-.26.39-.69.59-1.19.59-.87,0-1.54-.61-1.54-1.49s.66-1.48,1.54-1.48c.51,0,.96.21,1.21.61v-.59h.4Zm-.4,1.46c0-.67-.49-1.12-1.17-1.12s-1.16.45-1.16,1.12.48,1.12,1.16,1.12,1.17-.46,1.17-1.12Z"/>
          <path class="cls-6" d="m197.28,272.6c0-.18.14-.32.31-.32s.31.13.31.32-.15.32-.31.32-.31-.14-.31-.32Z"/>
          <path class="cls-6" d="m198.51,272.6c0-.18.14-.32.31-.32s.31.13.31.32-.15.32-.31.32-.31-.14-.31-.32Z"/>
          <path class="cls-6" d="m199.75,272.6c0-.18.14-.32.31-.32s.31.13.31.32-.15.32-.31.32-.31-.14-.31-.32Z"/>
        </g>
        <path class="cls-6" d="m349.59,279.54h-177.89c-.92,0-1.66-.74-1.66-1.66h0c0-.92.74-1.66,1.66-1.66h177.89c.92,0,1.66.74,1.66,1.66h0c0,.92-.74,1.66-1.66,1.66Z"/>
        <path class="cls-7" d="m324.31,279.54h-152.61c-.92,0-1.66-.74-1.66-1.66h0c0-.92.74-1.66,1.66-1.66h152.61c.92,0,1.66.74,1.66,1.66h0c0,.92-.74,1.66-1.66,1.66Z"/>
        <g>
          <path class="cls-12" d="m360.45,274.91c.1.1-.98,1.35-2.41,2.78-1.43,1.43-2.68,2.52-2.78,2.41-.1-.1.98-1.35,2.41-2.78s2.68-2.52,2.78-2.41Z"/>
          <path class="cls-12" d="m360.34,280.1c-.1.1-1.35-.98-2.78-2.41-1.43-1.43-2.52-2.68-2.41-2.78.1-.1,1.35.98,2.78,2.41s2.51,2.68,2.41,2.78Z"/>
        </g>
        <g>
          <path class="cls-6" d="m333.4,268.81v4.08h-.42v-3.71h-.96v-.37h1.38Z"/>
          <path class="cls-6" d="m337.14,271.69c0,.69-.48,1.24-1.48,1.24-.59,0-1.15-.2-1.46-.52l.2-.33c.26.27.73.47,1.25.47.69,0,1.06-.34,1.06-.83,0-.52-.33-.85-1.36-.85h-.87l.21-2.05h2.23v.37h-1.87l-.14,1.3h.53c1.23,0,1.7.48,1.7,1.21Z"/>
          <path class="cls-6" d="m343.79,268.81v4.08h-.41v-3.26l-1.6,2.75h-.2l-1.6-2.73v3.25h-.41v-4.08h.36l1.77,3.03,1.75-3.03h.36Z"/>
          <path class="cls-6" d="m348.52,271.8c0,.69-.51,1.09-1.53,1.09h-1.88v-4.08h1.76c.91,0,1.43.38,1.43,1.05,0,.47-.25.78-.62.93.52.12.84.46.84,1.01Zm-2.98-2.63v1.48h1.3c.65,0,1.03-.25,1.03-.74s-.38-.74-1.03-.74h-1.3Zm2.55,2.6c0-.53-.39-.76-1.11-.76h-1.44v1.53h1.44c.72,0,1.11-.23,1.11-.77Z"/>
        </g>
      </g>
      <g>
        <path class="cls-12" d="m133.84,90.87v-3.35h.84v3.31c0,1.3.6,1.89,1.66,1.89s1.66-.59,1.66-1.89v-3.31h.82v3.35c0,1.71-.93,2.61-2.49,2.61s-2.49-.9-2.49-2.61Z"/>
        <path class="cls-12" d="m145.04,91.18c0,1.37-.95,2.28-2.25,2.28-.63,0-1.18-.24-1.56-.72v2.3h-.81v-6.09h.77v.71c.36-.5.93-.75,1.59-.75,1.3,0,2.25.91,2.25,2.27Zm-.82,0c0-.94-.65-1.56-1.5-1.56s-1.5.62-1.5,1.56.65,1.57,1.5,1.57,1.5-.62,1.5-1.57Z"/>
        <path class="cls-12" d="m146.16,87.17h.81v6.24h-.81v-6.24Z"/>
        <path class="cls-12" d="m148.1,91.18c0-1.33.98-2.27,2.32-2.27s2.31.94,2.31,2.27-.98,2.28-2.31,2.28-2.32-.95-2.32-2.28Zm3.82,0c0-.95-.64-1.56-1.5-1.56s-1.51.61-1.51,1.56.65,1.57,1.51,1.57,1.5-.62,1.5-1.57Z"/>
        <path class="cls-12" d="m157.34,90.72v2.69h-.77v-.59c-.27.4-.77.64-1.46.64-1.01,0-1.65-.54-1.65-1.31,0-.71.46-1.3,1.79-1.3h1.28v-.16c0-.68-.4-1.08-1.19-1.08-.53,0-1.07.19-1.41.48l-.34-.61c.46-.37,1.13-.57,1.84-.57,1.22,0,1.91.59,1.91,1.81Zm-.81,1.33v-.62h-1.24c-.8,0-1.03.31-1.03.69,0,.45.37.72.98.72s1.08-.28,1.29-.79Z"/>
        <path class="cls-12" d="m163.07,87.17v6.24h-.77v-.71c-.36.5-.93.76-1.59.76-1.3,0-2.25-.92-2.25-2.28s.95-2.27,2.25-2.27c.63,0,1.19.24,1.56.71v-2.45h.81Zm-.8,4.01c0-.95-.65-1.56-1.5-1.56s-1.51.61-1.51,1.56.65,1.57,1.51,1.57,1.5-.62,1.5-1.57Z"/>
        <path class="cls-12" d="m168.45,87.12c.34,0,.68.08.91.26l-.24.61c-.17-.13-.39-.21-.62-.21-.48,0-.72.27-.72.78v.39h1.29v.66h-1.28v3.79h-.81v-3.79h-.76v-.66h.76v-.4c0-.87.52-1.44,1.47-1.44Zm1.91.45c0-.29.24-.53.55-.53s.55.23.55.51c0,.3-.23.54-.55.54s-.55-.23-.55-.52Zm.14,1.38h.81v4.46h-.81v-4.46Z"/>
        <path class="cls-12" d="m172.85,87.17h.81v6.24h-.81v-6.24Z"/>
        <path class="cls-12" d="m179.21,91.45h-3.62c.1.78.73,1.3,1.61,1.3.52,0,.96-.18,1.29-.54l.45.52c-.4.47-1.02.72-1.76.72-1.44,0-2.4-.95-2.4-2.28s.95-2.27,2.24-2.27,2.2.92,2.2,2.3c0,.07,0,.17-.02.24Zm-3.62-.58h2.86c-.08-.75-.65-1.28-1.43-1.28s-1.35.52-1.43,1.28Z"/>
        <path class="cls-12" d="m179.78,92.94l.34-.64c.38.27.98.46,1.56.46.75,0,1.06-.23,1.06-.61,0-1-2.82-.13-2.82-1.91,0-.8.71-1.34,1.86-1.34.58,0,1.24.15,1.62.4l-.34.64c-.4-.26-.85-.35-1.29-.35-.71,0-1.05.26-1.05.61,0,1.05,2.82.19,2.82,1.93,0,.81-.74,1.32-1.93,1.32-.74,0-1.47-.23-1.84-.52Z"/>
      </g>
      <path class="cls-12" d="m387.73,106.45c0,.14-61.07.26-136.39.26s-136.41-.12-136.41-.26,61.06-.26,136.41-.26,136.39.12,136.39.26Z"/>
    </g>
  </g>
  <g id="Cloud">
    <g>
      <path class="cls-3" d="m255.11,430.85H16.42s-2.81-56.16,46.8-59.9c0,0,8.23-47.49,63.65-47.74,66.46-.3,67.28,57.55,67.28,57.55,0,0,54.4-5.14,60.96,50.09"/>
      <path class="cls-12" d="m255.11,430.85s-.03-.13-.08-.4c-.05-.28-.11-.67-.2-1.19-.08-.53-.19-1.18-.31-1.95-.11-.78-.25-1.68-.5-2.68-.22-1.01-.47-2.13-.75-3.36-.36-1.22-.75-2.54-1.16-3.97-.47-1.42-1.06-2.91-1.66-4.51-.36-.78-.72-1.58-1.1-2.41-.19-.41-.38-.83-.58-1.25-.23-.41-.45-.82-.69-1.24-.48-.83-.9-1.73-1.47-2.57-.55-.85-1.12-1.71-1.7-2.6-.65-.84-1.31-1.7-1.98-2.58-.7-.86-1.48-1.68-2.25-2.55-3.16-3.38-7.13-6.53-11.82-9.11-4.67-2.61-10.06-4.63-15.92-5.93-2.93-.65-5.98-1.13-9.12-1.4-3.14-.27-6.38-.38-9.65-.15l-.24.02v-.24c-.14-3.27-.66-6.61-1.4-9.96-.75-3.35-1.76-6.72-3.06-10.04-2.63-6.62-6.43-13.12-11.68-18.64-2.63-2.75-5.55-5.3-8.78-7.49-.8-.56-1.66-1.04-2.48-1.57l-1.26-.78-1.31-.69c-.88-.45-1.74-.94-2.65-1.36-.91-.4-1.83-.8-2.74-1.2-.91-.43-1.87-.73-2.81-1.07-.95-.32-1.89-.71-2.86-.98-1.96-.52-3.89-1.17-5.91-1.52-1-.21-2-.42-3.01-.63-1.02-.15-2.04-.3-3.06-.44-2.04-.34-4.11-.48-6.18-.65-4.32-.32-8.62-.31-12.87-.13-1.06.09-2.11.18-3.17.27l-1.58.14-1.56.22c-1.04.15-2.08.31-3.11.46-1.02.21-2.04.42-3.06.63-4.04.94-8.01,2.1-11.72,3.75-3.72,1.62-7.23,3.58-10.46,5.84-6.48,4.52-11.69,10.33-15.64,16.54-1.98,3.11-3.63,6.35-4.99,9.61-1.37,3.26-2.46,6.58-3.13,9.88l-.04.17h-.17c-6.34.48-12.34,1.91-17.62,4.28-5.27,2.36-9.84,5.57-13.37,9.32-3.57,3.72-6.25,7.78-8.29,11.74-2.04,3.97-3.43,7.84-4.44,11.4-2.02,7.13-2.61,12.95-2.9,16.89-.13,1.98-.18,3.49-.18,4.52,0,1.02,0,1.55,0,1.55,0,0-.05-.53-.06-1.55-.02-1.02,0-2.54.12-4.52.25-3.95.8-9.79,2.79-16.95,1-3.57,2.38-7.47,4.41-11.47,2.03-3.99,4.72-8.09,8.3-11.85,3.55-3.79,8.15-7.05,13.47-9.44,5.32-2.4,11.37-3.85,17.75-4.34l-.2.18c.69-3.36,1.78-6.68,3.15-9.98,1.37-3.29,3.02-6.55,5.02-9.69,3.97-6.27,9.22-12.13,15.75-16.7,3.25-2.29,6.8-4.26,10.54-5.9,3.74-1.68,7.73-2.84,11.81-3.79,1.03-.21,2.05-.43,3.08-.64,1.04-.15,2.09-.31,3.13-.46l1.57-.23,1.59-.14c1.06-.09,2.12-.18,3.19-.28,4.27-.18,8.59-.19,12.93.13,2.09.17,4.17.31,6.22.65,1.03.15,2.05.3,3.07.45,1.01.21,2.02.42,3.03.63,2.03.36,3.98,1.01,5.95,1.53.98.27,1.93.66,2.89.99.95.35,1.92.65,2.83,1.08.92.4,1.85.81,2.77,1.21.91.42,1.78.92,2.67,1.37l1.32.69,1.27.78c.84.53,1.7,1.02,2.51,1.59,3.26,2.22,6.21,4.8,8.86,7.57,5.3,5.57,9.13,12.14,11.77,18.81,1.32,3.35,2.33,6.74,3.07,10.11.74,3.38,1.25,6.73,1.38,10.06l-.24-.22c3.33-.23,6.57-.11,9.73.16,3.16.28,6.23.77,9.17,1.43,5.89,1.32,11.31,3.36,16.01,6.01,4.71,2.61,8.7,5.79,11.87,9.21.76.88,1.55,1.71,2.25,2.58.68.89,1.34,1.76,1.98,2.61.58.9,1.15,1.77,1.7,2.62.56.85.98,1.75,1.46,2.59.23.42.46.84.68,1.25.2.43.39.85.58,1.26.38.83.74,1.64,1.09,2.42.59,1.61,1.18,3.12,1.64,4.54.41,1.44.79,2.77,1.14,3.99.26,1.24.5,2.37.72,3.38.24,1.01.37,1.91.47,2.69.11.78.2,1.43.28,1.96.07.52.12.92.16,1.2.03.27.04.41.04.41Z"/>
      <g>
        <polygon class="cls-7" points="123.97 269.2 123.97 269.19 123.97 269.19 123.97 269.2 79.32 309.65 106.28 309.65 106.28 366.9 122.95 366.9 124.98 366.9 141.66 366.9 141.66 309.65 168.62 309.65 123.97 269.2"/>
        <path class="cls-3" d="m92.29,347.35c15.69-3.95,25.89.48,33.13,10.63,6.21-10.68,20.53-13.62,32-9.01l7.21,27.32-43.92,5.75-36.71-6.74,8.29-27.96Z"/>
        <path class="cls-12" d="m153.94,348.1c-.02.05-.87-.3-2.45-.73-1.58-.44-3.97-.8-6.91-.61-1.47.08-3.07.38-4.75.81-1.65.52-3.42,1.13-5.12,2.12-3.42,1.86-6.73,4.9-8.81,8.94l-.21.41-.25-.41c-.29-.47-.6-.98-.92-1.5-1.32-1.96-2.87-3.72-4.6-5.13-1.75-1.39-3.56-2.61-5.44-3.44-3.72-1.8-7.46-2.44-10.56-2.55-3.12-.08-5.63.39-7.31.87-1.67.51-2.57.88-2.59.83,0-.02.21-.12.64-.3.43-.16,1.05-.48,1.9-.72,1.68-.54,4.21-1.08,7.38-1.05,3.15.06,6.97.67,10.76,2.49,1.92.84,3.77,2.07,5.56,3.49,1.78,1.44,3.36,3.23,4.71,5.24.32.53.64,1.05.94,1.53h-.46c2.14-4.15,5.55-7.24,9.05-9.12,1.74-.99,3.54-1.6,5.23-2.11,1.72-.42,3.34-.7,4.84-.76,2.99-.14,5.41.28,6.99.78.81.2,1.39.5,1.8.64.4.16.61.26.6.27Z"/>
      </g>
    </g>
  </g>
  <g id="Character">
    <g>
      <g>
        <path class="cls-12" d="m209.98,258.12c-2.06-6.61-1.2-17.7,3.35-23.17,4.55-5.46,12.44-8.63,19.5-9.5,1.18-.14,2.44-.2,3.49.36,1.05.56,1.75,1.93,1.18,2.98,1.47-.74,2.97-1.5,4.61-1.72,1.63-.22,3.44.18,4.52,1.43s1.06,3.43-.28,4.38c2-.53,4.27.23,5.55,1.85,1.28,1.62,1.49,4.01.51,5.83-.94,1.74-2.76,3.62-4.33,4.82-1.57,1.2-1.94,2.56-1.87,4.54"/>
        <g>
          <g>
            <g>
              <path class="cls-10" d="m212.69,246.58l-5.35,38.85c-.91,6.61,3.9,12.63,10.54,13.21h0c6.2.54,11.74-3.88,12.58-10.05.4-2.92.74-5.36.8-5.66,0,0,10.02.43,12.08-9.26,1-4.68,2.26-14.5,3.3-23.39,1.12-9.55-5.29-18.35-14.72-20.24l-.94-.19c-10.23-1.43-17.15,6.46-18.3,16.72Z"/>
              <path class="cls-8" d="m231.31,282.8s-6.24-.73-11.95-6.13c0,0,1.6,7.59,11.47,8.65l.48-2.52Z"/>
            </g>
            <g>
              <g>
                <g>
                  <path class="cls-12" d="m242.52,256.23c-.12.74-.84,1.24-1.62,1.13-.77-.11-1.3-.8-1.18-1.54.12-.74.84-1.25,1.62-1.13.77.11,1.3.8,1.18,1.54Z"/>
                  <path class="cls-12" d="m243.61,254.64c-.21.15-1.1-.84-2.6-1.14-1.49-.32-2.74.23-2.86.02-.06-.1.18-.39.72-.64.54-.25,1.41-.43,2.34-.24.93.19,1.64.69,2.02,1.13.39.44.48.8.38.87Z"/>
                </g>
                <g>
                  <path class="cls-12" d="m227.77,253.81c-.12.74-.84,1.24-1.62,1.13-.77-.11-1.3-.8-1.18-1.54.12-.74.84-1.24,1.62-1.13.77.11,1.3.8,1.18,1.54Z"/>
                  <path class="cls-12" d="m228.88,251.99c-.21.15-1.11-.84-2.6-1.14-1.49-.32-2.74.23-2.86.02-.06-.1.18-.39.72-.64.54-.25,1.41-.43,2.34-.24.93.19,1.64.69,2.02,1.13.39.44.48.8.38.87Z"/>
                </g>
                <path class="cls-12" d="m232.08,264.14c0-.09.97-.06,2.51.05.39.04.77.03.88-.21.14-.26.07-.7-.03-1.18-.17-.99-.36-2.04-.55-3.13-.74-4.45-1.19-8.07-1.01-8.1.18-.03.92,3.55,1.66,8,.17,1.09.34,2.14.5,3.14.06.46.21,1-.1,1.54-.16.26-.48.42-.74.43-.26.03-.47-.01-.67-.04-1.53-.22-2.47-.4-2.46-.49Z"/>
                <path class="cls-12" d="m227.48,264.3c.25.03-.08,1.66,1.08,3.08,1.15,1.43,2.92,1.59,2.89,1.82,0,.11-.45.24-1.18.11-.72-.12-1.72-.56-2.43-1.43-.71-.87-.88-1.89-.8-2.56.07-.69.33-1.06.44-1.02Z"/>
              </g>
              <path class="cls-12" d="m230.43,246.21c-.23.38-1.68-.11-3.47-.25-1.79-.18-3.31.06-3.47-.35-.07-.19.25-.53.9-.81.64-.28,1.62-.47,2.7-.38,1.07.1,2,.45,2.59.84.59.39.85.77.75.95Z"/>
              <path class="cls-12" d="m243.92,250.21c-.33.29-1.29-.27-2.52-.53-1.22-.31-2.33-.23-2.5-.63-.07-.19.16-.5.68-.73.51-.23,1.32-.34,2.17-.15.84.2,1.52.65,1.88,1.08.37.44.44.81.29.96Z"/>
            </g>
          </g>
          <g>
            <path class="cls-10" d="m212.05,253.94c-.15-.1-6.28-3.31-7.4,3.38-1.11,6.68,5.83,6.42,5.87,6.23.04-.19,1.53-9.61,1.53-9.61Z"/>
            <path class="cls-8" d="m208.9,260.67s-.13.06-.34.12c-.21.06-.55.06-.87-.13-.66-.38-1.07-1.6-.9-2.81.08-.61.31-1.17.6-1.61.29-.45.66-.74,1.02-.75.37-.02.58.23.63.43.06.2,0,.33.03.35.02.02.16-.09.15-.37,0-.14-.06-.31-.19-.46-.14-.16-.36-.26-.62-.28-.52-.05-1.06.35-1.39.83-.35.48-.62,1.11-.71,1.8-.18,1.35.3,2.73,1.22,3.17.45.2.87.12,1.09,0,.23-.13.29-.27.27-.29Z"/>
          </g>
          <path class="cls-12" d="m253.02,238.39c-.67,8.8-11.95,10.62-15.82,4.99-1.79-2.6-3.21-5.72-5.99-7.22-1.87-1.01-4.17-1.02-6.2-.38-.02,0-.04.01-.06.02-2.99.97-5.15,3.89-6.1,6.89-1.31,4.18-1.26,8.08-3.03,11.82-.25.54-.55,1.11-1.08,1.38-.91.45-1.99-.26-2.53-1.11-.87-1.37-.97-3.07-.94-4.69.07-3.69.72-7.39,2.22-10.76,1.5-3.37,3.88-6.39,6.99-8.37,3.89-2.47,8.79-3.17,13.29-2.2,4.5.97,8.59,3.55,11.65,7,1.42,1.6,2.66,3.43,3.14,5.51"/>
        </g>
        <path class="cls-4" d="m246.75,232.44s.35-.02.92.19c.57.21,1.34.71,2,1.6.65.88,1.16,2.17,1.09,3.64-.07,1.48-.82,3.02-2.02,4.19-1.2,1.18-2.68,1.9-4.09,2.21-1.41.32-2.71.31-3.78.2-1.07-.12-1.92-.33-2.49-.5-.57-.17-.88-.3-.87-.34.02-.09,1.29.31,3.39.46,1.04.06,2.3.04,3.64-.3,1.33-.32,2.71-1.02,3.84-2.12,1.11-1.1,1.82-2.51,1.9-3.85.09-1.34-.35-2.56-.92-3.4-.58-.85-1.27-1.37-1.78-1.63-.52-.26-.85-.33-.83-.38Z"/>
        <path class="cls-4" d="m242.79,228.63s.26-.03.62.22c.35.25.75.81.8,1.6.05.8-.34,1.69-.94,2.47-.6.78-1.35,1.58-2.26,2.25-1.82,1.37-3.83,2.03-5.29,2.23-1.47.22-2.38.05-2.38,0,0-.09.91-.06,2.31-.37,1.4-.29,3.3-.97,5.04-2.28.87-.65,1.6-1.39,2.19-2.12.58-.73.95-1.5.95-2.17,0-.68-.3-1.19-.57-1.46-.28-.27-.5-.33-.49-.37Z"/>
      </g>
      <g>
        <g>
          <g>
            <path class="cls-7" d="m287.9,351.1c-6.1,6.81-16.78,6.8-22.87-.02l-17.68-19.79-.21,28.2,6.24,18.09-61.99,10.75-2.63-48.91-4.46-37.56c-.55-4.6,2.08-8.99,6.39-10.69l17.06-6.72,24.03,4.41,9.67,3.67c4.06,1.54,7.67,4.06,10.53,7.33l27.11,31"/>
            <path class="cls-12" d="m247.71,358.29c.14,0,.18-9.77.08-21.82-.1-12.05-.3-21.82-.44-21.82-.14,0-.18,9.77-.08,21.82.1,12.05.3,21.82.44,21.82Z"/>
          </g>
          <path class="cls-7" d="m245.44,365.46l-37.45-15.08c-3.02-1.22-5.09-4.04-5.34-7.29l-2.74-35.91s.32-15.27-9.21-16.02l-5.43,2.14c-7.01,3.72-8.75,13.94-7.8,21.82,1.36,11.2,1.92,27.06,3.44,36.78,1.24,7.95,5.8,14.95,13.58,17l46.13,9.99,4.82-13.43Z"/>
          <path class="cls-12" d="m200.44,312.66s.06.28.12.82c.06.59.14,1.37.24,2.37.19,2.1.46,5.07.79,8.71.32,3.69.69,8.07,1.11,12.92.1,1.22.21,2.46.31,3.73.11,1.27.19,2.58.48,3.84.27,1.27.88,2.46,1.86,3.37.97.91,2.19,1.57,3.46,2.15,10.33,4.47,19.85,8.16,26.76,10.75,3.43,1.26,6.22,2.29,8.2,3.02.94.34,1.68.62,2.23.82.51.19.77.3.77.32,0,.02-.28-.06-.8-.22-.56-.18-1.31-.43-2.26-.73-1.96-.65-4.79-1.62-8.26-2.87-6.95-2.51-16.48-6.14-26.84-10.62-1.29-.59-2.55-1.27-3.59-2.24-1.05-.97-1.72-2.29-2-3.62-.3-1.33-.37-2.64-.48-3.91-.1-1.27-.2-2.52-.3-3.74-.38-4.86-.72-9.24-1-12.93-.26-3.65-.48-6.61-.63-8.72-.06-1-.11-1.79-.15-2.37-.03-.54-.03-.83-.02-.83Z"/>
          <path class="cls-12" d="m178.98,332.18s.04.17.07.48c.03.37.07.83.12,1.39.11,1.28.26,3,.44,5.1.21,2.15.47,4.71.84,7.53.39,2.82.84,5.94,1.69,9.1.4,1.6.97,3.07,1.83,4.34.86,1.28,1.81,2.42,2.8,3.44,1.98,2.03,4.09,3.51,5.99,4.5,3.83,1.99,6.62,2.02,6.58,2.15,0,.02-.17.01-.49-.01-.32-.02-.79-.06-1.39-.18-1.19-.21-2.91-.68-4.87-1.65-1.95-.96-4.13-2.44-6.16-4.49-1.01-1.03-1.99-2.19-2.88-3.49-.9-1.3-1.5-2.88-1.9-4.48-.86-3.21-1.3-6.33-1.67-9.17-.35-2.84-.57-5.41-.73-7.56-.16-2.16-.24-3.91-.29-5.11-.01-.56-.02-1.02-.03-1.39,0-.32,0-.49.03-.49Z"/>
          <path class="cls-12" d="m195,357.31c-.05-.01.11-.82.68-2,.57-1.18,1.62-2.7,3.14-4.01,1.53-1.3,3.2-2.1,4.45-2.48,1.26-.38,2.07-.41,2.08-.36.02.08-.77.24-1.96.7-1.19.45-2.77,1.27-4.25,2.53-1.47,1.26-2.53,2.69-3.16,3.8-.64,1.1-.91,1.86-.99,1.83Z"/>
          <g class="cls-9">
            <path d="m234.67,361.18c-4.01-2.26-7.92-4-12.11-5.9-4.19-1.9-8.29-4.35-11.03-8.04-5.17-6.97-4.58-17.02-9.87-23.9.35,4.62.69,9.25,1.04,13.87.32,4.24-.33,8.43,2.4,11.31,2.3,2.43,6.78,4.29,9.96,5.33,6.38,2.1,13.25,5.23,19.62,7.33"/>
          </g>
        </g>
        <g>
          <path class="cls-7" d="m206.28,286.15l1.83-6.87,23.27,5.47c1.31.31,2.08,1.65,1.71,2.93l-1.79,6.06-8.4,10.78-9.53-1.7-7.1-5.45v-11.23Z"/>
          <path class="cls-12" d="m231.82,289.27s-.29.1-.82.19c-.53.1-1.31.18-2.28.22-1.93.1-4.64-.04-7.53-.73-2.89-.7-5.36-1.8-7.04-2.76-.84-.48-1.5-.91-1.93-1.23-.44-.32-.67-.51-.65-.54.05-.07,1.05.58,2.75,1.45,1.7.87,4.15,1.89,6.99,2.58,2.84.68,5.48.87,7.4.87,1.91,0,3.1-.13,3.11-.04Z"/>
        </g>
        <g>
          <path class="cls-3" d="m214.49,286.17s-.33-.19-.56-.71c-.24-.51-.37-1.32-.18-2.17.2-.85.68-1.52,1.12-1.87.44-.36.79-.44.82-.38.04.07-.23.26-.56.65-.33.38-.7.98-.87,1.73-.17.75-.11,1.45.02,1.93.13.49.28.78.22.83Z"/>
          <path class="cls-3" d="m224.5,289.58c-.15-.06.49-1.51.27-3.36-.19-1.86-1.12-3.14-.99-3.22.05-.04.36.22.7.78.34.55.69,1.4.8,2.39.11.99-.05,1.9-.27,2.51-.22.61-.46.94-.52.91Z"/>
          <path class="cls-3" d="m225.31,357.24s0-.24.03-.7c.03-.46.13-1.13.17-2,.14-1.74.18-4.26-.01-7.37-.18-3.11-.69-6.79-1.39-10.85-.7-4.06-1.61-8.51-2.35-13.22-1.48-9.43-1.81-18.1-1.68-24.34.06-3.12.2-5.65.35-7.39.06-.87.14-1.55.19-2,.05-.46.08-.7.1-.69s.02.24,0,.7c-.02.51-.05,1.18-.09,2.01-.08,1.74-.17,4.27-.18,7.38-.04,6.23.35,14.86,1.82,24.26.74,4.7,1.64,9.14,2.31,13.22.67,4.08,1.14,7.78,1.28,10.91.15,3.13.05,5.67-.15,7.4-.06.87-.2,1.54-.26,2-.07.45-.12.69-.14.69Z"/>
          <path class="cls-3" d="m236.76,290.63s.03.06.07.18c.04.12.09.3.14.54.11.48.23,1.2.28,2.13.11,1.87-.14,4.55-.29,7.86-.16,3.31-.33,7.26-.21,11.63.12,4.37.6,9.17,1.8,14.08,1.16,4.91,2.51,9.58,3.01,13.97.55,4.38.54,8.35.39,11.67-.17,3.32-.47,6-.71,7.84-.12.92-.23,1.63-.31,2.12-.08.48-.13.73-.15.73s0-.26.04-.75c.05-.54.12-1.24.21-2.13.18-1.85.42-4.52.54-7.83.1-3.31.07-7.26-.49-11.6-.52-4.34-1.87-8.98-3.04-13.92-1.21-4.94-1.68-9.79-1.77-14.19-.1-4.4.11-8.36.32-11.67.2-3.32.51-5.99.46-7.83-.02-.92-.1-1.64-.18-2.12-.07-.48-.13-.73-.11-.74Z"/>
          <path class="cls-3" d="m258.1,330.63c-.04.05-.76-.48-1.82-1.45-1.06-.96-2.47-2.38-3.88-4.05-1.41-1.68-2.57-3.3-3.34-4.51-.77-1.21-1.18-2-1.12-2.04.13-.08,2.05,2.89,4.86,6.22,2.8,3.33,5.41,5.72,5.3,5.84Z"/>
          <path class="cls-3" d="m270.91,327.59s-.41-.36-1.09-1.09c-.68-.72-1.64-1.78-2.8-3.11-2.33-2.66-5.47-6.41-8.77-10.69-3.3-4.28-6.13-8.26-8.11-11.2-.99-1.47-1.77-2.66-2.3-3.5-.53-.84-.8-1.31-.77-1.33.03-.02.36.41.94,1.22.63.88,1.45,2.03,2.43,3.41,2.05,2.87,4.93,6.82,8.22,11.09,3.29,4.27,6.38,8.05,8.63,10.76,1.08,1.3,1.98,2.39,2.68,3.22.63.76.96,1.2.94,1.22Z"/>
          <path class="cls-3" d="m207.54,350.59s-.15-.18-.39-.56c-.23-.38-.54-.97-.84-1.76-.61-1.58-1.08-4.05-.89-7.09.14-3.04,1.02-6.55,1.51-10.48.48-3.94.44-8.31.14-12.89-.3-4.58-.75-8.94-.91-12.93-.18-3.99-.07-7.6.31-10.6.36-3,.99-5.38,1.52-6.99.27-.8.5-1.41.68-1.82.17-.41.27-.62.29-.61.05.02-.31.88-.78,2.49-.47,1.61-1.04,3.98-1.35,6.97-.33,2.98-.4,6.57-.19,10.53.19,3.97.66,8.32.95,12.92.3,4.59.33,9.01-.18,12.98-.52,3.97-1.43,7.45-1.62,10.44-.24,2.99.17,5.42.71,6.99.54,1.59,1.09,2.36,1.04,2.39Z"/>
          <path class="cls-3" d="m196.55,354.01s-.99-.29-2.45-1.42c-1.43-1.14-3.2-3.27-4.27-6.4-.52-1.56-.91-3.34-1-5.27-.11-1.93.03-4,.31-6.14.57-4.29,1.71-8.89,2.09-13.83.43-4.94.32-9.67-.12-13.94-.21-2.14-.43-4.19-.43-6.12,0-1.93.2-3.74.69-5.32.99-3.17,2.96-5.24,4.55-6.15.8-.47,1.5-.66,1.96-.79.48-.08.73-.12.73-.1.02.07-1.04.12-2.58,1.07-1.52.94-3.38,2.98-4.3,6.08-.46,1.54-.64,3.31-.61,5.21.02,1.9.25,3.93.48,6.07.47,4.29.6,9.06.16,14.03-.38,4.98-1.54,9.61-2.13,13.85-.29,2.12-.44,4.16-.35,6.05.07,1.9.43,3.64.92,5.17,1.01,3.08,2.69,5.19,4.05,6.36,1.39,1.16,2.36,1.52,2.33,1.58Z"/>
          <path class="cls-3" d="m239.45,369.11s-.6-.21-1.65-.67c-1.13-.49-2.63-1.14-4.45-1.94-3.76-1.62-9-3.76-14.88-5.87-5.89-2.11-11.29-3.78-15.23-4.92-1.91-.54-3.48-.99-4.67-1.33-1.1-.31-1.71-.5-1.7-.54,0-.03.63.09,1.75.34,1.12.25,2.73.65,4.72,1.17,3.97,1.05,9.4,2.68,15.3,4.79,5.9,2.12,11.13,4.32,14.86,6.02,1.87.85,3.36,1.57,4.39,2.09,1.02.52,1.58.82,1.57.85Z"/>
          <path class="cls-3" d="m191.09,367.07s-.06-.02-.17-.08c-.11-.06-.27-.14-.47-.28-.4-.27-.96-.7-1.62-1.33-1.27-1.29-3.06-3.3-4.33-6.34-.32-.75-.49-1.65-.56-2.52-.1-.88-.2-1.79-.3-2.74-.21-1.89-.43-3.92-.66-6.04-.49-4.25-1.09-8.91-2.17-13.72-1.02-4.86-1.4-9.59-1.5-13.87-.1-4.29.07-8.15.27-11.38.2-3.23.43-5.84.61-7.65.09-.86.16-1.55.21-2.07.05-.47.09-.72.11-.72.02,0,.02.25,0,.73-.03.53-.07,1.22-.12,2.08-.11,1.81-.28,4.42-.44,7.65-.15,3.23-.29,7.08-.16,11.35.12,4.27.52,8.96,1.53,13.78,1.07,4.83,1.67,9.52,2.13,13.78.22,2.13.42,4.15.61,6.05.09.95.19,1.86.27,2.74.06.89.21,1.68.51,2.43,1.19,2.97,2.92,5.02,4.13,6.33.63.65,1.16,1.1,1.53,1.39.38.28.59.42.58.44Z"/>
        </g>
      </g>
      <g>
        <path class="cls-7" d="m299.76,413.96s31.34,8.67,32.6,9.12c1.89.66,1.57,7.58-1.37,7.47-1.39-.05-24.07.84-26.94.67s-11.51-3.59-11.51-3.59l7.22-13.67Z"/>
        <path class="cls-12" d="m312.81,425.91c.16.02.37-1.64,1.38-3.36.99-1.74,2.31-2.76,2.22-2.88-.05-.12-1.61.76-2.67,2.62-1.08,1.85-1.06,3.64-.93,3.63Z"/>
        <path class="cls-12" d="m309.54,424.43c.15.03.47-1.45,1.31-3.09.82-1.65,1.82-2.78,1.71-2.89-.09-.1-1.31.92-2.18,2.65-.88,1.73-.97,3.32-.84,3.33Z"/>
        <path class="cls-12" d="m306.48,423.61c.16,0,.04-1.58.73-3.31.67-1.75,1.82-2.82,1.71-2.93-.06-.12-1.47.85-2.2,2.74-.75,1.88-.37,3.55-.24,3.5Z"/>
        <path class="cls-12" d="m307.04,419.56c.06.01.33-.86.34-2.33,0-.73-.09-1.61-.32-2.56-.11-.47-.27-.96-.47-1.45-.1-.25-.22-.54-.5-.77-.29-.26-.82-.21-1.08.05-.29.25-.38.6-.42.89-.03.29-.05.56-.04.83,0,.54.08,1.06.19,1.53.23.96.6,1.76.96,2.4.73,1.27,1.36,1.92,1.41,1.89.07-.05-.45-.78-1.08-2.06-.31-.64-.63-1.42-.82-2.33-.1-.45-.15-.93-.15-1.43.01-.48,0-1.08.29-1.31.15-.12.28-.13.41-.03.14.11.25.32.34.55.19.47.35.93.47,1.38.25.9.37,1.74.41,2.45.09,1.42-.05,2.31.03,2.32Z"/>
        <path class="cls-12" d="m307,419.24c.01-.06-.74-.32-2.02-.33-.64,0-1.4.07-2.22.27-.41.11-.84.21-1.28.47-.43.22-.88.81-.71,1.43.13.58.63.99,1.13,1.12.5.14.98.09,1.41,0,.86-.2,1.53-.62,2.04-1,1-.79,1.49-1.39,1.46-1.43-.06-.07-.65.45-1.67,1.13-.51.33-1.16.68-1.92.83-.38.07-.79.1-1.16-.02-.37-.1-.68-.38-.76-.74-.09-.35.12-.67.47-.87.34-.21.75-.33,1.14-.44.78-.22,1.5-.32,2.11-.37,1.23-.09,2,.04,2.01-.04Z"/>
        <path class="cls-12" d="m317.63,426.25c.15-.02,0-1.36.62-2.83.59-1.48,1.63-2.33,1.53-2.45-.05-.13-1.36.61-2.02,2.26-.68,1.63-.26,3.08-.13,3.02Z"/>
        <path class="cls-12" d="m295.76,427.7s.42.23,1.21.57c.81.3,1.98.73,3.49,1.08,3,.76,7.27,1.18,11.96,1.13,4.7-.05,8.93-.27,12-.39,1.45-.08,2.67-.14,3.63-.19.86-.06,1.33-.11,1.33-.14,0-.04-.48-.06-1.34-.06-.96,0-2.18.02-3.64.03-3.17.06-7.36.14-11.99.23-4.67.05-8.89-.32-11.88-.97-3-.62-4.75-1.39-4.78-1.29Z"/>
        <path class="cls-12" d="m294.83,428.41c.04.07.9-.43,2.35-1.06,1.43-.61,3.58-1.35,5.93-.99,2.36.36,4.04,1.95,5.13,3.05,1.1,1.14,1.74,1.9,1.81,1.84.05-.04-.49-.87-1.53-2.1-.53-.61-1.2-1.31-2.08-1.94-.87-.64-1.99-1.18-3.24-1.37-2.53-.39-4.75.46-6.17,1.17-1.44.74-2.22,1.35-2.19,1.4Z"/>
      </g>
      <g>
        <path class="cls-7" d="m266.49,405.3s-29.66,19.42-30.72,20.22c-1.6,1.21.23,6.95,3,5.96,1.31-.47,26.19-7.39,28.87-8.43,2.68-1.04,9.88-6.91,9.88-6.91l-11.03-10.83Z"/>
        <path class="cls-12" d="m257.69,420.66c.13-.03-.4-1.74-1.98-3.17-1.57-1.45-3.33-1.82-3.34-1.69-.06.15,1.52.71,2.99,2.08,1.49,1.34,2.19,2.85,2.34,2.79Z"/>
        <path class="cls-12" d="m260.35,418.26c.13-.05-.45-1.54-1.81-2.92-1.35-1.39-2.83-1.99-2.88-1.87-.07.14,1.22.92,2.5,2.24,1.29,1.31,2.04,2.62,2.18,2.55Z"/>
        <path class="cls-12" d="m263.02,416.54c.13,0-.01-1.7-1.3-3.26-1.27-1.58-2.9-2.08-2.92-1.94-.07.14,1.35.81,2.52,2.27,1.19,1.44,1.55,2.97,1.7,2.93Z"/>
        <path class="cls-12" d="m261.26,412.86c.08-.04-.33-.84-.67-2.22-.17-.69-.31-1.52-.35-2.46-.02-.47-.01-.96.03-1.46.02-.24.06-.48.16-.63.09-.13.23-.17.41-.09.34.14.51.71.67,1.17.15.47.25.95.29,1.41.09.92.02,1.77-.08,2.47-.21,1.41-.49,2.26-.4,2.29.05.02.46-.79.77-2.23.15-.72.26-1.59.19-2.58-.03-.49-.13-1-.28-1.52-.08-.26-.17-.51-.29-.78-.12-.26-.32-.57-.67-.72-.32-.17-.84-.06-1.04.28-.2.31-.22.62-.24.88-.04.53-.04,1.04,0,1.53.07.97.25,1.83.47,2.53.45,1.4.98,2.15,1.03,2.12Z"/>
        <path class="cls-12" d="m261.2,412.54c.04.08.73-.28,1.93-.57.6-.14,1.32-.27,2.12-.29.4,0,.83-.02,1.22.08.39.09.69.33.71.69.03.37-.18.73-.5.94-.32.22-.72.32-1.1.37-.77.09-1.5-.05-2.08-.21-1.18-.34-1.9-.65-1.93-.57-.02.05.63.48,1.82.92.6.21,1.36.41,2.24.34.43-.04.91-.14,1.34-.42.43-.27.78-.81.74-1.41-.03-.64-.63-1.07-1.11-1.15-.5-.11-.94-.08-1.36-.06-.85.05-1.59.22-2.2.42-1.22.4-1.86.87-1.83.92Z"/>
        <path class="cls-12" d="m242.55,430.4s.5-.3.73-1.15c.25-.83.09-2.1-.56-3.22-.31-.56-.67-1.05-.99-1.48-.32-.43-.66-.82-1.01-1.08-.34-.27-.7-.39-.95-.4-.25-.01-.37.05-.37.08,0,.08.53.04,1.08.6.28.26.55.64.86,1.08.3.44.63.92.92,1.45.6,1.05.78,2.13.65,2.89-.11.77-.43,1.17-.36,1.22Z"/>
        <path class="cls-12" d="m253.2,422.44c.14.01.1-1.49-1.04-2.84-1.13-1.36-2.6-1.67-2.61-1.54-.06.15,1.2.64,2.21,1.87,1.03,1.21,1.29,2.54,1.45,2.51Z"/>
        <path class="cls-12" d="m274.47,417.18s-.48.3-1.3.89c-.83.58-2.06,1.39-3.66,2.24-1.6.86-3.56,1.75-5.81,2.59-2.25.84-4.76,1.63-7.43,2.4-5.34,1.54-10.17,2.94-13.65,3.99-1.67.51-3.06.94-4.12,1.27-.97.31-1.5.5-1.49.53.01.03.56-.09,1.55-.34,1.07-.28,2.48-.66,4.17-1.1,3.51-.96,8.35-2.3,13.7-3.84,2.67-.77,5.2-1.58,7.45-2.45,2.25-.87,4.23-1.81,5.82-2.71,1.59-.91,2.8-1.77,3.6-2.4.79-.65,1.2-1.03,1.18-1.06Z"/>
        <path class="cls-12" d="m275.57,417.58c.01-.06-.92-.4-2.51-.67-1.57-.25-3.94-.37-6.23.76-1.13.56-2.03,1.42-2.67,2.29-.64.87-1.07,1.74-1.39,2.48-.62,1.48-.88,2.44-.82,2.46.08.03.46-.89,1.16-2.31.7-1.38,1.82-3.4,3.96-4.46,2.13-1.06,4.4-1.01,5.95-.86,1.57.17,2.54.38,2.56.3Z"/>
      </g>
      <g>
        <path class="cls-12" d="m328.12,357.95s8.9,3.18,8.93,13.15c.07,19.11-38.61,40.17-38.61,40.17l-51.47-34.11-3.23-1.31s69.49-26.1,84.38-17.91Z"/>
        <path class="cls-4" d="m273.05,394.39s.5-.3,1.34-.91c.84-.61,2.05-1.52,3.52-2.66,2.95-2.28,6.96-5.51,11.27-9.21,4.31-3.71,8.11-7.18,10.81-9.75,1.35-1.28,2.43-2.34,3.16-3.08.73-.74,1.13-1.16,1.1-1.19-.02-.03-.47.35-1.24,1.04-.84.76-1.94,1.75-3.27,2.95-2.76,2.5-6.59,5.92-10.9,9.62-4.31,3.7-8.27,6.97-11.16,9.32-1.39,1.13-2.54,2.07-3.41,2.79-.8.66-1.24,1.04-1.22,1.07Z"/>
        <path class="cls-4" d="m313.59,365.09c.02-.13-2.28-.35-4.96.45-2.69.78-4.5,2.22-4.41,2.32.09.14,1.96-1.06,4.56-1.81,2.59-.78,4.81-.79,4.81-.95Z"/>
        <path class="cls-4" d="m309.16,362.08c-.05-.12-1.7.6-3.05,2.3-1.37,1.68-1.73,3.45-1.6,3.47.15.05.71-1.55,2.01-3.14,1.28-1.6,2.73-2.49,2.64-2.62Z"/>
        <path class="cls-12" d="m330.95,422.58c.03-.06-.61-.18-1.33.4-.7.56-1.3,1.68-1.49,2.99-.19,1.32.1,2.53.47,3.29.36.78.76,1.15.81,1.11.07-.05-.21-.48-.47-1.25-.26-.76-.47-1.88-.29-3.08.18-1.2.67-2.24,1.22-2.79.55-.57,1.09-.59,1.08-.68Z"/>
      </g>
      <g>
        <polygon class="cls-4" points="316.28 326.73 297.95 373.2 219.01 374.49 217.55 370.22 245.21 369.22 258.51 327.99 316.28 326.73"/>
        <path class="cls-11" d="m279.42,346.85c1.01-.69,2.89-.41,3.8.41s1.21,2.23.74,3.36c-.46,1.13-1.63,1.93-2.85,1.99-1.3.07-2.65-.74-3.01-1.99-.36-1.25.04-3.11,1.33-3.77"/>
      </g>
      <g>
        <path class="cls-12" d="m303.32,413.59s-72.73-47.7-75.7-48.7c-2.98-.99-10.17-5.71-17.37-3.72-7.2,1.99-13.65,8.44-16.87,17.87-1.84,5.39-2.71,14.58-3.12,21.47-.49,8.24,2.06,16.46,7.45,22.71,2.45,2.85,5.48,5.32,9.07,6.44.76.24,1.54.44,2.35.61,13.75,2.98,27.88-3.19,35.61-14.95l1.7-2.58s47.58,17.48,48.32,17.23l8.58-16.39Z"/>
        <path class="cls-4" d="m213.35,400.46s.13.07.4.18c.29.11.68.27,1.19.47,1.07.41,2.62,1.01,4.61,1.78,4.04,1.52,9.88,3.72,17.13,6.45,7.28,2.72,16,5.94,25.78,9.5,9.78,3.56,20.62,7.46,32.2,11.38l.21.07.1-.2c1.82-3.47,3.74-7.13,5.68-10.85.99-1.9,1.98-3.78,2.9-5.53l.11-.21-.2-.13c-21.84-13.86-41.38-26.27-55.48-35.22-7.04-4.44-12.72-8.02-16.66-10.51-1.95-1.22-3.47-2.17-4.53-2.82-.51-.31-.9-.55-1.18-.72-.27-.16-.41-.23-.41-.23,0,0,.13.1.38.27.28.18.66.44,1.15.76,1.04.68,2.54,1.65,4.47,2.9,3.92,2.52,9.57,6.15,16.58,10.65,14.08,8.99,33.58,21.44,55.38,35.35l-.09-.34c-.92,1.76-1.9,3.64-2.9,5.53-1.94,3.72-3.86,7.38-5.68,10.85l.31-.13c-11.57-3.91-22.42-7.79-32.21-11.32-9.78-3.56-18.51-6.74-25.82-9.4-7.28-2.67-13.13-4.82-17.19-6.31-2-.73-3.56-1.3-4.64-1.69-.52-.18-.92-.32-1.21-.43-.27-.09-.42-.13-.42-.13Z"/>
      </g>
    </g>
  </g>
</svg>